<svg width="238" height="155" viewBox="0 0 238 155" fill="none" xmlns="http://www.w3.org/2000/svg">
<g clip-path="url(#clip0_205_418)">
<path d="M25.3408 104.821C21.9877 104.551 19.7478 101.106 20.9663 97.8918L35.5389 58.9459C37.1168 54.7745 41.1195 52.0155 45.5857 52.0155H190.438C194.907 52.0155 198.907 54.7745 200.488 58.9459L215.06 97.8918C216.275 101.106 214.039 104.551 210.686 104.821H25.3408Z" fill="white"/>
<path d="M98.2122 121.732C97.549 122.098 96.7891 122.286 95.8173 122.286C93.5191 122.286 92.1804 120.961 92.1804 118.674C92.1804 116.659 93.2452 114.994 95.4095 114.994C97.9928 114.994 98.7241 116.77 98.7241 119.204H93.9108C93.9926 120.325 94.7748 120.961 95.8991 120.961C96.778 120.961 97.5354 120.636 98.2134 120.256L98.2122 121.732ZM96.9949 117.957C96.9416 117.078 96.5326 116.323 95.5211 116.323C94.5071 116.323 93.9939 117.025 93.9108 117.957H96.9949Z" fill="black"/>
<path d="M100.375 115.158H102.092V116.106H102.118C102.69 115.309 103.457 114.995 104.404 114.995C106.055 114.995 106.772 116.159 106.772 117.728V122.123H104.96V118.405C104.96 117.554 104.948 116.403 103.782 116.403C102.474 116.403 102.186 117.825 102.186 118.716V122.123H100.375V115.158Z" fill="black"/>
<path d="M113.03 116.62C112.476 116.431 112.069 116.323 111.408 116.323C110.92 116.323 110.34 116.497 110.34 117.092C110.34 118.203 113.49 117.497 113.49 120.012C113.49 121.638 112.045 122.286 110.571 122.286C109.88 122.286 109.179 122.162 108.516 121.99L108.622 120.501C109.191 120.785 109.786 120.961 110.406 120.961C110.868 120.961 111.597 120.783 111.597 120.11C111.597 118.741 108.447 119.675 108.447 117.16C108.447 115.659 109.76 114.993 111.178 114.993C112.031 114.993 112.585 115.132 113.152 115.251L113.03 116.62Z" fill="black"/>
<path d="M121.726 122.121H120.007V121.177H119.978C119.426 121.851 118.642 122.286 117.695 122.286C116.044 122.286 115.327 121.123 115.327 119.553V115.158H117.141V118.876C117.141 119.729 117.153 120.878 118.317 120.878C119.627 120.878 119.91 119.458 119.91 118.568V115.158H121.726V122.121Z" fill="black"/>
<path d="M123.789 115.158H125.4V116.741H125.428C125.508 116.09 126.252 114.994 127.334 114.994C127.511 114.994 127.699 114.994 127.888 115.051V116.877C127.725 116.783 127.401 116.73 127.075 116.73C125.602 116.73 125.602 118.568 125.602 119.569V122.123H123.787L123.789 115.158Z" fill="black"/>
<path d="M129.456 112.154H131.269V113.888H129.456V112.154ZM129.456 115.158H131.269V122.125H129.456V115.158Z" fill="black"/>
<path d="M133.325 115.158H135.041V116.109H135.067C135.634 115.309 136.409 114.998 137.353 114.998C139.002 114.998 139.718 116.159 139.718 117.727V122.125H137.907V118.404C137.907 117.553 137.895 116.405 136.731 116.405C135.418 116.405 135.136 117.825 135.136 118.715V122.125H133.325V115.158Z" fill="black"/>
<path d="M148.208 115.158V121.444C148.208 123.34 147.453 125.126 144.53 125.126C143.814 125.126 142.991 125.018 142.122 124.653L142.272 123.111C142.826 123.406 143.732 123.721 144.304 123.721C146.301 123.721 146.396 122.219 146.396 121.013H146.37C146.035 121.608 145.222 122.124 144.208 122.124C142.153 122.124 141.366 120.471 141.366 118.607C141.366 116.928 142.235 114.996 144.315 114.996C145.235 114.996 145.951 115.308 146.453 116.107H146.478V115.156H148.208V115.158ZM146.396 118.568C146.396 117.377 145.941 116.405 144.885 116.405C143.653 116.405 143.26 117.538 143.26 118.608C143.26 119.553 143.758 120.718 144.799 120.718C145.94 120.719 146.396 119.729 146.396 118.568Z" fill="black"/>
<path d="M156.184 116.483H154.848V115.158H156.184V113.766L157.997 113.183V115.158H159.61V116.483H157.997V119.728C157.997 120.323 158.162 120.878 158.85 120.878C159.175 120.878 159.485 120.812 159.676 120.689L159.727 122.125C159.351 122.232 158.932 122.286 158.39 122.286C156.97 122.286 156.185 121.407 156.185 120.028L156.184 116.483Z" fill="black"/>
<path d="M161.64 111.982H163.454V116.109H163.479C163.939 115.429 164.726 114.998 165.67 114.998C167.321 114.998 168.038 116.159 168.038 117.727V122.125H166.224V118.404C166.224 117.553 166.212 116.405 165.051 116.405C163.735 116.405 163.455 117.825 163.455 118.715V122.125H161.642L161.64 111.982Z" fill="black"/>
<path d="M175.702 121.732C175.039 122.098 174.283 122.286 173.31 122.286C171.01 122.286 169.673 120.961 169.673 118.674C169.673 116.659 170.74 114.998 172.902 114.998C175.485 114.998 176.217 116.77 176.217 119.204H171.401C171.483 120.325 172.267 120.961 173.389 120.961C174.271 120.961 175.025 120.636 175.701 120.256L175.702 121.732ZM174.487 117.96C174.434 117.078 174.028 116.323 173.011 116.323C172 116.323 171.486 117.025 171.403 117.96H174.487Z" fill="black"/>
<path d="M183.815 116.483H182.477V115.158H183.815V114.185C183.815 112.794 184.6 111.818 186.033 111.818C186.493 111.818 187.006 111.884 187.357 111.967L187.207 113.467C187.044 113.373 186.818 113.226 186.425 113.226C185.817 113.226 185.628 113.755 185.628 114.296V115.158H187.206V116.483H185.628V122.125H183.814L183.815 116.483ZM188.451 111.982H190.265V122.126H188.451V111.982Z" fill="black"/>
<path d="M195.63 114.998C197.7 114.998 199.283 116.389 199.283 118.688C199.283 120.689 197.944 122.286 195.63 122.286C193.332 122.286 191.993 120.689 191.993 118.688C191.994 116.389 193.577 114.998 195.63 114.998ZM195.63 120.878C197.024 120.878 197.39 119.634 197.39 118.47C197.39 117.403 196.821 116.405 195.63 116.405C194.456 116.405 193.889 117.43 193.889 118.47C193.889 119.623 194.25 120.878 195.63 120.878Z" fill="black"/>
<path d="M199.658 115.158H201.581L203.121 120.311H203.148L204.557 115.158H206.663L208.178 120.311H208.205L209.653 115.158H211.384L209.249 122.125H207.111L205.597 116.808H205.569L204.08 122.125H202.012L199.658 115.158Z" fill="black"/>
<path d="M110.608 85.4112H101.888V82.9758C101.888 81.5275 103.338 81.5275 103.338 81.5275H109.16C110.608 81.5275 110.608 82.9758 110.608 82.9758V85.4112ZM116.429 73.7601L96.0628 73.7638C93.9195 73.7638 92.1816 75.5011 92.1816 77.6451V104.823H101.888V93.176H110.608V104.823H120.311V77.6451C120.313 75.5023 118.571 73.7601 116.429 73.7601Z" fill="#005B9A"/>
<path d="M142.432 73.7601V95.0732C142.353 97.0089 140.384 97.0114 140.384 97.0114H135.772C134.004 97.0114 133.757 95.4961 133.724 95.0732V73.7601H124.014V100.941C124.014 103.085 125.751 104.823 127.894 104.823H148.255C150.402 104.823 152.139 103.085 152.139 100.941V73.7601H142.432Z" fill="#005B9A"/>
<path d="M50.5279 104.823L62.1391 73.7639H59.5917C57.2204 73.7639 55.0945 75.2308 54.2553 77.448L45.4084 101.137C44.7638 102.847 45.9514 104.682 47.7326 104.825L50.5279 104.823Z" fill="#A5C400"/>
<path d="M64.0592 73.7639L52.4455 104.823H55.278L66.8892 73.7639H64.0592Z" fill="#A5C400"/>
<path d="M88.4827 85.4099V77.6451C88.4827 75.5011 86.7448 73.7601 84.5991 73.7601H68.8068L57.1981 104.823H84.5991C86.7436 104.823 88.4827 103.085 88.4827 100.941V93.176C88.4827 91.0321 86.7448 89.2936 84.5991 89.2936C86.7448 89.2949 88.4827 87.5539 88.4827 85.4099ZM78.871 95.6102C78.871 97.0585 77.4231 97.0585 77.4231 97.0585H66.4677L67.918 93.176H77.4231C78.871 93.176 78.871 94.6244 78.871 94.6244V95.6102ZM78.871 83.9616C78.871 85.4136 77.4231 85.4137 77.4231 85.4137H70.8236L72.2789 81.5275H77.4231C78.871 81.5275 78.871 82.9758 78.871 82.9758V83.9616Z" fill="#005B9A"/>
<path d="M190.674 103.328L186.856 93.1488C186.122 91.1809 184.115 89.859 182.035 89.7326C183.587 88.1578 184.03 85.6108 182.948 82.7018L180.994 77.4479C180.154 75.2308 178.033 73.7638 175.66 73.7638L155.839 73.7601V104.823H165.543V93.1388H172.559C174.926 93.1388 177.052 94.607 177.89 96.8266L180.875 104.823H180.865H189.765C189.765 104.823 191.214 104.776 190.674 103.328ZM172.834 85.3566H165.544V81.5275H171.303C172.131 81.5275 172.383 81.8772 172.581 82.4128L173.053 83.6727C173.31 84.3671 173.359 85.3566 172.834 85.3566Z" fill="#005B9A"/>
<path d="M204.723 63.767L202.627 58.1634C200.72 53.1265 195.822 49.7488 190.44 49.7488H45.5857C40.2009 49.7488 35.3058 53.1278 33.4031 58.1547L30.0587 67.0914L27.5559 73.7812H29.9942L35.5389 58.9645C37.1168 54.7919 41.1195 52.0353 45.5857 52.0353H190.438C194.907 52.0353 198.907 54.7919 200.488 58.9645L206.032 73.7812H208.467L204.723 63.767Z" fill="#A5C400"/>
</g>
<defs>
<clipPath id="clip0_205_418">
<rect width="238" height="155" fill="white"/>
</clipPath>
</defs>
</svg>
