<svg width="547" height="100" viewBox="0 0 547 100" fill="none" xmlns="http://www.w3.org/2000/svg">
<path d="M246.569 37.8348C255.028 20.3302 274.44 12.2018 289.917 19.688C300.046 24.5871 305.982 34.9633 306.505 46.4495H311.56C310.872 33.8899 304.385 22.6238 293.358 17.2935C276.266 9.02748 254.752 18.1651 245.303 37.7064C243.917 40.5779 242.872 43.5137 242.147 46.4495H243.569C244.211 43.5504 245.202 40.6605 246.569 37.8348Z" fill="black"/>
<path d="M259.266 83.0734C252.101 79.6146 247.046 73.4128 244.505 66.0183H242C244.339 75.5963 250.266 83.7431 259.147 88.0367C276.239 96.3027 297.752 87.1651 307.202 67.6238C307.459 67.0917 307.697 66.5504 307.936 66.0183H302.055C293.321 82.7614 274.422 90.4036 259.266 83.0734Z" fill="black"/>
<path d="M272.468 67.5687L273.716 67.1833L274.532 72.0549L275.349 76.9356L273.284 72.4402L271.211 67.954L272.468 67.5687Z" fill="black"/>
<path d="M272.853 69.7705C271.138 69.7705 269.743 68.376 269.743 66.6604H275.963C275.963 68.376 274.578 69.7705 272.853 69.7705Z" fill="#ED1C24"/>
<path d="M290.358 23.2752C289.771 22.9725 289.193 22.6789 288.615 22.4128L289.294 24.2936C289.862 24.4587 290.394 24.6147 290.899 24.7798L290.358 23.2752Z" fill="#ED1C24"/>
<path d="M286.835 23.6514C287.257 23.7523 287.661 23.8532 288.064 23.9541L287.284 21.8165C286.844 21.6239 286.404 21.4496 285.972 21.2844L286.835 23.6514Z" fill="#ED1C24"/>
<path d="M284.688 20.8073C258.853 11.9082 248.248 41.5504 248.248 41.5504H256.248C261.248 22.4128 275.523 21.2568 285.615 23.3761L284.688 20.8073Z" fill="#ED1C24"/>
<path d="M291.743 24.0366L292.165 25.1926C294.183 25.8807 295.404 26.3944 295.385 26.266C294.138 25.4403 292.927 24.7063 291.743 24.0366Z" fill="#ED1C24"/>
<path d="M250.165 71.0274C250.22 70.9907 250.284 70.9999 250.33 71.0549L251.037 72.0549C251.083 72.11 251.073 72.1834 251.018 72.2201L249.963 73.009C249.908 73.0457 249.844 73.0366 249.798 72.9815L249.092 71.9815C249.046 71.9173 249.055 71.8531 249.11 71.8164L250.165 71.0274Z" fill="black"/>
<path d="M251.826 73.2935C251.872 73.2477 251.945 73.2568 251.991 73.3119L252.78 74.2477C252.826 74.3027 252.826 74.3669 252.771 74.4128L251.789 75.2935C251.743 75.3394 251.67 75.3302 251.624 75.2752L250.835 74.3394C250.789 74.2844 250.789 74.2201 250.844 74.1743L251.826 73.2935Z" fill="black"/>
<path d="M253.706 75.4219C253.752 75.3669 253.817 75.3669 253.872 75.4219L254.743 76.2751C254.798 76.3302 254.798 76.3944 254.752 76.4402L253.853 77.4127C253.807 77.4678 253.743 77.4678 253.688 77.4127L252.817 76.5595C252.771 76.5045 252.761 76.4402 252.807 76.3944L253.706 75.4219Z" fill="black"/>
<path d="M255.789 77.3668C255.835 77.3118 255.899 77.3026 255.954 77.3485L256.908 78.1099C256.963 78.1558 256.972 78.22 256.936 78.2751L256.138 79.3393C256.092 79.3943 256.037 79.4035 255.973 79.3576L255.018 78.5962C254.963 78.5503 254.954 78.4861 254.991 78.431L255.789 77.3668Z" fill="black"/>
<path d="M258.073 79.0916C258.11 79.0274 258.174 79.0182 258.229 79.0549L259.257 79.6971C259.321 79.7338 259.33 79.798 259.303 79.8623L258.624 81.009C258.587 81.0641 258.523 81.0824 258.468 81.0457L257.44 80.4035C257.376 80.3668 257.367 80.3026 257.394 80.2384L258.073 79.0916Z" fill="black"/>
<path d="M260.56 80.5596C260.587 80.4954 260.651 80.4771 260.716 80.5046L261.807 81.0183C261.872 81.0459 261.899 81.1101 261.872 81.1743L261.33 82.3945C261.303 82.4587 261.239 82.4771 261.174 82.4495L260.083 81.9358C260.018 81.9082 259.991 81.844 260.018 81.7798L260.56 80.5596Z" fill="black"/>
<path d="M263.229 81.7247C263.248 81.6605 263.312 81.6238 263.376 81.6513L264.523 82.0275C264.587 82.0458 264.624 82.1101 264.596 82.1743L264.202 83.4587C264.183 83.5229 264.119 83.5504 264.055 83.5321L262.908 83.1559C262.844 83.1376 262.807 83.0734 262.826 83.0091L263.229 81.7247Z" fill="black"/>
<path d="M266.028 82.5321C266.037 82.4679 266.092 82.4312 266.165 82.4404L267.349 82.6605C267.422 82.6697 267.459 82.7248 267.44 82.7982L267.211 84.1284C267.202 84.1927 267.147 84.2294 267.073 84.2202L265.89 84C265.817 83.9908 265.78 83.9358 265.798 83.8624L266.028 82.5321Z" fill="black"/>
<path d="M268.89 82.9724C268.89 82.899 268.945 82.8623 269.009 82.8623L270.211 82.9265C270.284 82.9265 270.33 82.9816 270.321 83.0458L270.257 84.3944C270.257 84.4678 270.202 84.5045 270.128 84.5045L268.927 84.4403C268.853 84.4403 268.817 84.3852 268.817 84.321L268.89 82.9724Z" fill="black"/>
<path d="M271.743 83.0275C271.734 82.9541 271.78 82.9083 271.853 82.9083L273.055 82.8257C273.128 82.8257 273.174 82.8624 273.183 82.9358L273.266 84.2752C273.275 84.3486 273.229 84.3945 273.156 84.4037L271.954 84.4862C271.881 84.4954 271.835 84.4495 271.826 84.3761L271.743 83.0275Z" fill="black"/>
<path d="M274.495 82.7706C274.486 82.7064 274.523 82.6513 274.596 82.6422L275.78 82.4587C275.853 82.4495 275.899 82.4862 275.917 82.5596L276.11 83.8899C276.119 83.9633 276.083 84.0091 276.009 84.0275L274.817 84.211C274.752 84.2201 274.697 84.1834 274.688 84.1192L274.495 82.7706Z" fill="black"/>
<path d="M277.183 82.3027C277.165 82.2385 277.202 82.1835 277.275 82.1651L278.44 81.8807C278.514 81.8624 278.569 81.899 278.578 81.9633L278.872 83.2752C278.89 83.3394 278.853 83.4036 278.78 83.4128L277.615 83.6972C277.55 83.7156 277.486 83.6789 277.477 83.6146L277.183 82.3027Z" fill="#ED1C24"/>
<path d="M279.835 81.6054C279.817 81.5412 279.844 81.477 279.908 81.4586L281.055 81.0825C281.119 81.0641 281.184 81.0917 281.202 81.1559L281.596 82.4403C281.615 82.5045 281.587 82.5687 281.514 82.5871L280.367 82.9632C280.303 82.9816 280.239 82.954 280.22 82.8898L279.835 81.6054Z" fill="#ED1C24"/>
<path d="M282.422 80.6971C282.394 80.6329 282.422 80.5687 282.486 80.5412L283.596 80.0641C283.661 80.0366 283.725 80.0641 283.752 80.1283L284.248 81.376C284.275 81.4402 284.248 81.5045 284.183 81.532L283.073 82.0091C283.009 82.0366 282.945 82.0091 282.917 81.9448L282.422 80.6971Z" fill="#ED1C24"/>
<path d="M284.945 79.5596C284.917 79.4954 284.936 79.4312 285 79.4036L286.064 78.8348C286.128 78.7981 286.193 78.8257 286.22 78.8807L286.817 80.0825C286.844 80.1468 286.826 80.211 286.761 80.2385L285.697 80.8073C285.633 80.844 285.569 80.8165 285.541 80.7614L284.945 79.5596Z" fill="#ED1C24"/>
<path d="M287.367 78.2019C287.33 78.1468 287.349 78.0826 287.404 78.0368L288.422 77.3762C288.486 77.3395 288.55 77.3487 288.587 77.4129L289.284 78.5505C289.321 78.6056 289.303 78.679 289.248 78.7157L288.229 79.3762C288.165 79.4129 288.101 79.4037 288.073 79.3395L287.367 78.2019Z" fill="#ED1C24"/>
<path d="M289.67 76.6238C289.633 76.5688 289.642 76.5045 289.697 76.4587L290.651 75.7064C290.706 75.6605 290.771 75.6697 290.817 75.7247L291.606 76.7981C291.651 76.8532 291.633 76.9174 291.578 76.9633L290.624 77.7155C290.569 77.7614 290.505 77.7522 290.459 77.6972L289.67 76.6238Z" fill="#ED1C24"/>
<path d="M291.835 74.844C291.789 74.7889 291.798 74.7247 291.844 74.6788L292.725 73.844C292.78 73.7981 292.844 73.7981 292.89 73.844L293.771 74.8348C293.817 74.8898 293.817 74.9541 293.761 74.9999L292.881 75.8348C292.826 75.8807 292.761 75.8807 292.716 75.8348L291.835 74.844Z" fill="#ED1C24"/>
<path d="M293.835 72.8624C293.789 72.8165 293.78 72.7523 293.826 72.6972L294.633 71.7798C294.679 71.7248 294.743 71.7248 294.798 71.7706L295.771 72.6697C295.817 72.7156 295.826 72.7798 295.78 72.8349L294.972 73.7523C294.927 73.8073 294.862 73.8073 294.807 73.7615L293.835 72.8624Z" fill="#ED1C24"/>
<path d="M295.642 70.5688C295.587 70.5321 295.578 70.4587 295.624 70.4036L296.33 69.4036C296.376 69.3486 296.44 69.3302 296.495 69.3761L297.55 70.1743C297.606 70.211 297.615 70.2843 297.569 70.3394L296.862 71.3394C296.817 71.3944 296.752 71.4128 296.697 71.3669L295.642 70.5688Z" fill="#ED1C24"/>
<path d="M244.229 50.6237C244.45 49.3393 244.587 48.4586 244.642 47.9724C244.697 47.4861 244.789 46.7247 244.917 45.688C248.211 44.8714 251.046 44.4678 253.413 44.4678C254.761 44.4678 256 44.6421 257.119 44.9815C258.239 45.321 259.119 45.8806 259.743 46.6421C260.376 47.4036 260.688 48.5045 260.688 49.9265C260.688 50.6513 260.606 52.2843 260.431 54.8256C260.257 57.3669 260.128 60.6971 260.037 64.8164C258.917 64.7889 257.798 64.7797 256.688 64.7797C255.615 64.7797 254.468 64.798 253.257 64.8164C253.413 63.3944 253.587 60.4494 253.78 55.9907C253.349 56.2201 253.009 56.3944 252.761 56.4953C252.514 56.5962 252.083 56.7522 251.468 56.9632C250.853 57.1742 250.367 57.3485 250.018 57.4861C249.67 57.6237 249.367 57.8072 249.11 58.0274C248.853 58.2476 248.67 58.4769 248.56 58.7063C248.45 58.9357 248.394 59.2017 248.394 59.4861C248.394 59.9265 248.55 60.3026 248.862 60.6146C249.174 60.9265 249.661 61.0825 250.339 61.0825C250.578 61.0825 250.835 61.0641 251.11 61.0182C251.385 60.9724 251.761 60.8623 252.239 60.6788C251.908 61.6788 251.514 63.1375 251.055 65.0549C250.073 65.2384 249.138 65.3302 248.257 65.3302C246.835 65.3302 245.661 65.11 244.716 64.6604C243.771 64.2109 243.046 63.4953 242.532 62.4953C242.018 61.4953 241.771 60.5045 241.771 59.5045C241.771 58.899 241.862 58.3026 242.055 57.7155C242.248 57.1283 242.541 56.5595 242.936 56.0091C243.339 55.4494 243.807 54.9724 244.339 54.5779C244.872 54.1834 245.615 53.8072 246.541 53.4586C247.477 53.11 248.651 52.7797 250.083 52.4678C250.679 52.3393 251.22 52.2017 251.725 52.0458C252.22 51.899 252.578 51.7705 252.789 51.6604C253 51.5503 253.174 51.4219 253.303 51.2751C253.431 51.1283 253.532 50.9724 253.587 50.8072C253.642 50.6421 253.67 50.4769 253.67 50.2935C253.67 49.798 253.486 49.4219 253.119 49.1558C252.752 48.8898 252.22 48.7522 251.505 48.7522C249.56 48.743 247.128 49.3669 244.229 50.6237Z" fill="#2E3192"/>
<path d="M278.523 58.6146C278.468 59.1375 278.33 60.0825 278.11 61.4678L277.661 64.5779C275.862 65.0733 274.11 65.321 272.395 65.321C271.147 65.321 270.055 65.1742 269.119 64.8898C268.009 64.5503 267.018 63.954 266.128 63.1008C265.22 62.2201 264.569 61.1742 264.156 59.9724C263.661 58.5595 263.413 56.9815 263.413 55.2292C263.413 53.6237 263.651 52.0733 264.138 50.587C264.615 49.1008 265.33 47.8714 266.266 46.9081C267.202 45.9448 268.248 45.2935 269.385 44.9632C270.532 44.6329 271.789 44.4678 273.174 44.4678C273.991 44.4678 274.807 44.5136 275.633 44.6146C276.459 44.7063 277.477 44.9173 278.688 45.2476L278.725 45.6971C278.761 46.165 278.789 46.6421 278.798 47.1283C278.817 47.6146 278.853 48.3852 278.908 49.4311L279.009 51.1558C277.376 50.5045 275.927 50.1834 274.67 50.1834C273.761 50.1834 272.972 50.3852 272.294 50.7797C271.615 51.1742 271.11 51.743 270.78 52.4861C270.459 53.2292 270.294 54.0916 270.294 55.0825C270.294 56.0825 270.44 56.9173 270.734 57.587C271.028 58.2659 271.495 58.7705 272.128 59.1008C272.771 59.4402 273.477 59.6054 274.239 59.6054C274.624 59.6054 275.092 59.5595 275.624 59.4678C276.156 59.376 276.615 59.2751 277.009 59.165C277.422 59.0549 277.917 58.8714 278.523 58.6146Z" fill="#2E3192"/>
<path d="M281.578 64.8074C281.734 63.2294 281.853 61.9267 281.936 60.8992C282.018 59.8716 282.092 58.5689 282.165 56.9725C282.239 55.3762 282.303 53.6148 282.358 51.6881C282.413 49.7615 282.459 47.5138 282.495 44.9634C283.982 44.9909 285.174 45.0001 286.064 45.0001C286.881 45.0001 288.046 44.9909 289.569 44.9634C289.376 47.4129 289.229 49.5597 289.147 51.4129C289.064 53.2661 289.009 55.2294 288.982 57.3028C288.936 60.9817 288.908 63.4863 288.908 64.8074C287.55 64.7799 286.376 64.7707 285.394 64.7707C284.431 64.7707 283.156 64.7799 281.578 64.8074ZM282.661 42.4863C282.725 40.945 282.761 39.7248 282.761 38.8349C282.761 38.5781 282.752 38.2294 282.743 37.7891C284.128 37.8166 285.284 37.8258 286.229 37.8258C287.523 37.8258 288.651 37.8166 289.624 37.7891C289.587 38.1927 289.569 38.5322 289.55 38.7982L289.45 41.2111C289.431 41.5689 289.413 42.0001 289.413 42.4955C288.275 42.468 287.193 42.4588 286.156 42.4588C285.092 42.4404 283.917 42.4588 282.661 42.4863Z" fill="#2E3192"/>
<path d="M305.422 59.1009C305.211 60.1926 305.037 61.2477 304.89 62.2844L304.514 64.6513C303.385 64.9357 302.495 65.1192 301.862 65.1926C301.229 65.266 300.615 65.3119 300.018 65.3119C299.046 65.3119 298.184 65.2201 297.431 65.0275C296.679 64.844 296.046 64.4954 295.541 64C295.037 63.5046 294.697 62.9266 294.514 62.2844C294.33 61.633 294.239 60.9541 294.239 60.2201C294.239 60.0917 294.248 59.8624 294.257 59.5321C294.266 59.2018 294.312 58.4679 294.376 57.3211L294.752 50.5963H292.073C292.128 49.7064 292.183 48.5229 292.229 47.0642L292.284 45.2569H295.128C295.202 44.6605 295.284 43.3578 295.385 41.3486L298.321 40.6697C298.862 40.5504 300 40.2568 301.752 39.7798C301.67 41.477 301.615 43.3027 301.578 45.2569H305.495C305.404 47.9541 305.358 49.7339 305.358 50.6055H301.413L301.202 55.4587C301.174 56.1835 301.165 56.6513 301.165 56.8624C301.165 57.4862 301.229 58 301.349 58.4128C301.468 58.8257 301.679 59.1284 301.982 59.3027C302.284 59.4862 302.615 59.578 302.991 59.578C303.266 59.578 303.55 59.5596 303.844 59.5137C304.138 59.4679 304.67 59.3302 305.422 59.1009Z" fill="#2E3192"/>
<path d="M28.4495 46.679C28.5505 46.1652 28.6147 45.8074 28.6422 45.6147C28.6697 45.4221 28.7156 45.1193 28.7706 44.6973C30.3303 44.367 31.6789 44.2019 32.8073 44.2019C33.4495 44.2019 34.0367 44.2753 34.5688 44.4129C35.1009 44.5505 35.5138 44.7707 35.8165 45.0826C36.1193 45.3854 36.2661 45.8258 36.2661 46.4037C36.2661 46.6973 36.2294 47.3487 36.1468 48.367C36.0642 49.3854 36 50.7248 35.9633 52.3762C35.4312 52.367 34.8991 52.3579 34.3761 52.3579C33.8624 52.3579 33.3211 52.367 32.7431 52.3762C32.8165 51.8074 32.8991 50.6239 32.9908 48.8349C32.789 48.9267 32.6239 49.0001 32.5046 49.0368C32.3853 49.0735 32.1835 49.1377 31.8899 49.2203C31.5963 49.3028 31.367 49.3762 31.2018 49.4313C31.0367 49.4863 30.8899 49.5597 30.7706 49.6514C30.6514 49.7432 30.5596 49.8349 30.5138 49.9267C30.4679 50.0184 30.4404 50.1193 30.4404 50.2386C30.4404 50.4129 30.5138 50.5689 30.6605 50.6881C30.8073 50.8166 31.0459 50.8716 31.3578 50.8716C31.4679 50.8716 31.5963 50.8625 31.7248 50.8441C31.8532 50.8258 32.0367 50.7799 32.2569 50.7065C32.1009 51.1102 31.9083 51.6881 31.6972 52.4588C31.2294 52.5322 30.789 52.5689 30.367 52.5689C29.6972 52.5689 29.1376 52.4771 28.6881 52.3028C28.2385 52.1285 27.8991 51.8349 27.6514 51.4313C27.4128 51.0276 27.2936 50.6331 27.2936 50.2294C27.2936 49.9817 27.3395 49.7432 27.4312 49.5138C27.5229 49.2753 27.6606 49.0551 27.8532 48.8258C28.0459 48.6056 28.2661 48.4129 28.5229 48.2569C28.7798 48.101 29.1284 47.945 29.5688 47.8074C30.0092 47.6698 30.5688 47.5322 31.2477 47.4129C31.5321 47.3579 31.789 47.3028 32.0275 47.2478C32.2661 47.1836 32.4312 47.1377 32.5321 47.0918C32.633 47.0459 32.7156 46.9909 32.7798 46.9358C32.844 46.8808 32.8899 46.8166 32.9174 46.7524C32.945 46.6881 32.9541 46.6147 32.9541 46.5505C32.9541 46.3487 32.8624 46.2019 32.6972 46.0918C32.5229 45.9817 32.2661 45.9358 31.9358 45.9358C30.9817 45.9267 29.8257 46.1744 28.4495 46.679Z" fill="#2E3192"/>
<path d="M44.7339 49.8808C44.7064 50.0918 44.6422 50.468 44.5413 51.0276L44.3303 52.2753C43.4771 52.4771 42.6422 52.5689 41.8257 52.5689C41.2385 52.5689 40.7156 52.5138 40.266 52.3946C39.7431 52.257 39.266 52.0184 38.8532 51.679C38.422 51.3212 38.1101 50.9083 37.9174 50.4221C37.6881 49.8533 37.5688 49.2203 37.5688 48.523C37.5688 47.8808 37.6789 47.257 37.9083 46.6606C38.1376 46.0643 38.4771 45.5689 38.9174 45.1836C39.367 44.7982 39.8532 44.5322 40.4037 44.4037C40.9449 44.2753 41.5505 44.2019 42.2018 44.2019C42.5872 44.2019 42.9725 44.2203 43.367 44.257C43.7615 44.2936 44.2385 44.3762 44.8165 44.5138L44.8349 44.6973C44.8532 44.8808 44.8624 45.0735 44.8716 45.2661C44.8807 45.4588 44.8991 45.7707 44.9266 46.1927L44.9725 46.89C44.1927 46.6331 43.5046 46.4955 42.9083 46.4955C42.4771 46.4955 42.1009 46.578 41.7798 46.734C41.4587 46.89 41.2202 47.1193 41.0642 47.4221C40.9082 47.7248 40.8349 48.0643 40.8349 48.4588C40.8349 48.8625 40.9083 49.1927 41.0459 49.468C41.1835 49.734 41.4037 49.9359 41.7064 50.0735C42.0092 50.2111 42.3486 50.2753 42.7064 50.2753C42.8899 50.2753 43.1101 50.257 43.367 50.2203C43.6147 50.1836 43.844 50.1469 44.0275 50.101C44.211 50.0643 44.4404 49.9909 44.7339 49.8808Z" fill="#2E3192"/>
<path d="M51.0826 44.2109C51.7523 44.2109 52.4037 44.3119 53.0275 44.5045C53.6514 44.7064 54.1743 44.9908 54.6055 45.3577C55.0367 45.7247 55.3486 46.1651 55.5505 46.6605C55.7523 47.1559 55.8532 47.688 55.8532 48.266C55.8532 48.8256 55.7615 49.3486 55.578 49.8531C55.3945 50.3577 55.0917 50.8256 54.6514 51.266C54.2202 51.7064 53.6606 52.0366 52.9908 52.2476C52.3211 52.4678 51.6147 52.5779 50.8624 52.5779C50.1743 52.5779 49.5138 52.4862 48.8716 52.2935C48.2385 52.1008 47.7064 51.8164 47.2752 51.4495C46.844 51.0825 46.5321 50.6421 46.3119 50.1284C46.1009 49.6146 45.9908 49.0733 45.9908 48.5045C45.9908 47.9357 46.0917 47.3944 46.3028 46.8807C46.5138 46.3669 46.844 45.9082 47.2936 45.4953C47.7431 45.0825 48.3119 44.7706 48.9725 44.5504C49.6606 44.321 50.3578 44.2109 51.0826 44.2109ZM51.0184 46.5045C50.6697 46.5045 50.3578 46.5871 50.0917 46.7614C49.8165 46.9357 49.6147 47.1834 49.4771 47.5137C49.3395 47.844 49.2661 48.2018 49.2661 48.5963C49.2661 49.1651 49.4128 49.6054 49.7156 49.9082C50.0092 50.2109 50.3853 50.3669 50.844 50.3669C51.1835 50.3669 51.4954 50.2752 51.7615 50.1008C52.0367 49.9265 52.2385 49.6697 52.3762 49.3302C52.5138 48.9908 52.5872 48.6238 52.5872 48.2385C52.5872 47.9174 52.5321 47.6238 52.422 47.3669C52.3119 47.11 52.1376 46.899 51.8899 46.743C51.6422 46.5779 51.3486 46.5045 51.0184 46.5045Z" fill="#2E3192"/>
<path d="M56.9817 52.367C57.1376 51.1835 57.2569 49.8808 57.3395 48.4587C57.422 47.0367 57.4771 45.6789 57.4862 44.4129C58.1376 44.422 58.6973 44.4312 59.1743 44.4312C59.7248 44.4312 60.2477 44.422 60.7523 44.4129L60.6697 45.4771C60.8532 45.2844 61 45.1285 61.1376 45.0184C61.2661 44.9083 61.4312 44.7982 61.6239 44.6881C61.8165 44.578 62.0184 44.4954 62.2385 44.4312C62.4587 44.367 62.6973 44.312 62.9541 44.2753C63.211 44.2386 63.4862 44.2202 63.7615 44.2202C64.156 44.2202 64.5321 44.2569 64.9083 44.3395C65.2844 44.4221 65.5872 44.5321 65.844 44.6789C66.0917 44.8257 66.3028 45.0092 66.4679 45.2294C66.633 45.4496 66.7431 45.6881 66.7982 45.945C66.8532 46.2019 66.8807 46.4587 66.8807 46.734C66.8807 46.9266 66.8532 47.3578 66.8165 48.0092L66.6789 50.8349C66.6514 51.3945 66.633 51.9083 66.633 52.3762C66.0826 52.367 65.5688 52.3578 65.0917 52.3578C64.4495 52.3578 63.8532 52.367 63.3211 52.3762C63.367 51.9083 63.422 51.2019 63.4771 50.2661C63.5321 49.3303 63.5596 48.6789 63.5596 48.2936C63.5596 47.7065 63.4404 47.2936 63.2018 47.0643C62.9633 46.8349 62.6697 46.7156 62.3119 46.7156C62 46.7156 61.6973 46.8165 61.422 47.0092C61.1376 47.211 60.9266 47.4954 60.7706 47.8716C60.6147 48.2477 60.5138 48.8716 60.4495 49.734C60.3853 50.5964 60.3395 51.4771 60.3211 52.367C59.7798 52.3578 59.2477 52.3487 58.7339 52.3487C58.2018 52.3578 57.6147 52.3578 56.9817 52.367Z" fill="#2E3192"/>
<path d="M79.5138 49.8808C79.4862 50.0918 79.422 50.468 79.3211 51.0276L79.1101 52.2753C78.2569 52.4771 77.422 52.5689 76.6055 52.5689C76.0184 52.5689 75.4954 52.5138 75.0459 52.3946C74.5229 52.257 74.0459 52.0184 73.633 51.679C73.2018 51.3212 72.8899 50.9083 72.6973 50.4221C72.4679 49.8533 72.3486 49.2203 72.3486 48.523C72.3486 47.8808 72.4587 47.257 72.6881 46.6606C72.9174 46.0643 73.2477 45.5689 73.6973 45.1836C74.1468 44.7982 74.6422 44.5322 75.1835 44.4037C75.7248 44.2753 76.3303 44.2019 76.9817 44.2019C77.367 44.2019 77.7523 44.2203 78.1468 44.257C78.5413 44.2936 79.0184 44.3762 79.5963 44.5138L79.6147 44.6973C79.633 44.8808 79.6422 45.0735 79.6514 45.2661C79.6606 45.4588 79.6789 45.7707 79.7064 46.1927L79.7523 46.89C78.9725 46.6331 78.2844 46.4955 77.6881 46.4955C77.2569 46.4955 76.8807 46.578 76.5596 46.734C76.2385 46.89 76 47.1193 75.844 47.4221C75.6881 47.7248 75.6147 48.0643 75.6147 48.4588C75.6147 48.8625 75.6881 49.1927 75.8257 49.468C75.9633 49.734 76.1835 49.9359 76.4862 50.0735C76.789 50.2111 77.1284 50.2753 77.4862 50.2753C77.6697 50.2753 77.8899 50.257 78.1468 50.2203C78.3945 50.1836 78.6239 50.1469 78.8073 50.101C78.9908 50.0643 79.2294 49.9909 79.5138 49.8808Z" fill="#2E3192"/>
<path d="M81.7798 46.679C81.8807 46.1652 81.945 45.8074 81.9725 45.6147C82 45.4221 82.0459 45.1193 82.1009 44.6973C83.6697 44.367 85.0092 44.2019 86.1376 44.2019C86.7798 44.2019 87.367 44.2753 87.8991 44.4129C88.4312 44.5505 88.844 44.7707 89.1468 45.0826C89.4495 45.3854 89.5963 45.8258 89.5963 46.4037C89.5963 46.6973 89.5596 47.3487 89.4771 48.367C89.3945 49.3854 89.3303 50.7248 89.2936 52.3762C88.7615 52.367 88.2294 52.3579 87.7064 52.3579C87.1927 52.3579 86.6514 52.367 86.0734 52.3762C86.1468 51.8074 86.2294 50.6239 86.3211 48.8349C86.1193 48.9267 85.9541 49.0001 85.8349 49.0368C85.7156 49.0735 85.5138 49.1377 85.2202 49.2203C84.9266 49.3028 84.6973 49.3762 84.5321 49.4313C84.367 49.4863 84.2202 49.5597 84.1009 49.6514C83.9817 49.7432 83.8899 49.8349 83.844 49.9267C83.789 50.0184 83.7706 50.1193 83.7706 50.2386C83.7706 50.4129 83.844 50.5689 83.9908 50.6881C84.1376 50.8166 84.367 50.8716 84.6881 50.8716C84.7982 50.8716 84.9266 50.8625 85.055 50.8441C85.1835 50.8258 85.367 50.7799 85.5872 50.7065C85.4312 51.1102 85.2385 51.6881 85.0275 52.4588C84.5596 52.5322 84.1193 52.5689 83.6973 52.5689C83.0275 52.5689 82.4587 52.4771 82.0184 52.3028C81.5688 52.1285 81.2294 51.8349 80.9817 51.4313C80.7431 51.0276 80.6147 50.6331 80.6147 50.2294C80.6147 49.9817 80.6606 49.7432 80.7523 49.5138C80.844 49.2753 80.9817 49.0551 81.1743 48.8258C81.367 48.6056 81.5872 48.4129 81.844 48.2569C82.1009 48.101 82.4495 47.945 82.8899 47.8074C83.3303 47.6698 83.8899 47.5322 84.5688 47.4129C84.8532 47.3579 85.1101 47.3028 85.3486 47.2478C85.5872 47.1836 85.7523 47.1377 85.8532 47.0918C85.9541 47.0459 86.0367 46.9909 86.1009 46.9358C86.1651 46.8808 86.211 46.8166 86.2385 46.7524C86.2661 46.6881 86.2752 46.6147 86.2752 46.5505C86.2752 46.3487 86.1835 46.2019 86.0184 46.0918C85.844 45.9817 85.5872 45.9358 85.2477 45.9358C84.3028 45.9267 83.156 46.1744 81.7798 46.679Z" fill="#2E3192"/>
<path d="M91.1009 52.3668L91.2477 50.6879L91.5596 44.8622L91.6514 41.7246C92.4037 41.7338 92.9725 41.743 93.3578 41.743C93.8532 41.743 94.4037 41.7338 95 41.7246L94.8165 44.1191L94.5138 50.009L94.4495 52.3668C93.8716 52.3668 93.3395 52.3576 92.8716 52.3576L91.1009 52.3668Z" fill="#2E3192"/>
<path d="M96.2385 52.367C96.3119 51.734 96.367 51.211 96.4128 50.7982C96.4495 50.3853 96.4862 49.8624 96.5229 49.2202C96.5596 48.578 96.5871 47.8716 96.6147 47.1009C96.6422 46.3303 96.6605 45.4312 96.6789 44.4037C97.3853 44.4129 97.9541 44.422 98.3761 44.422C98.7615 44.422 99.3211 44.422 100.037 44.4037C99.9449 45.3853 99.8716 46.2477 99.8349 46.9908C99.7982 47.734 99.7706 48.523 99.7615 49.3486C99.7431 50.8257 99.7248 51.8257 99.7248 52.3578C99.0826 52.3486 98.5229 52.3395 98.055 52.3395C97.5871 52.3578 96.9816 52.3578 96.2385 52.367ZM96.7523 43.4129C96.7798 42.7982 96.7982 42.3028 96.7982 41.945C96.7982 41.8441 96.7982 41.6973 96.789 41.5229C97.4495 41.5321 98 41.5413 98.4404 41.5413C99.055 41.5413 99.5963 41.5321 100.055 41.5229C100.037 41.6881 100.028 41.8165 100.028 41.9266L99.9816 42.8899C99.9725 43.0367 99.9633 43.2019 99.9633 43.4037C99.422 43.3945 98.9082 43.3853 98.4128 43.3853C97.8991 43.3945 97.3486 43.4037 96.7523 43.4129Z" fill="#2E3192"/>
<path d="M101.459 52.3668C101.615 50.7338 101.743 48.8255 101.853 46.642C101.963 44.4677 102.028 42.8255 102.028 41.7246C102.661 41.7338 103.248 41.743 103.798 41.743C104.339 41.743 104.862 41.7338 105.376 41.7246C105.257 42.5319 105.174 43.4219 105.119 44.3943C105.615 44.3118 105.991 44.2659 106.257 44.2384C106.523 44.2108 106.789 44.2017 107.046 44.2017C107.881 44.2017 108.596 44.3301 109.193 44.5778C109.789 44.8255 110.275 45.2567 110.642 45.853C111.018 46.4494 111.202 47.1833 111.202 48.0457C111.202 48.9081 111.028 49.7063 110.67 50.431C110.321 51.1558 109.844 51.6971 109.257 52.0457C108.67 52.3943 107.972 52.5686 107.193 52.5686C106.899 52.5686 106.624 52.5411 106.349 52.4861C106.083 52.431 105.844 52.3485 105.624 52.2292C105.404 52.1191 105.22 51.9998 105.073 51.8714C104.927 51.743 104.761 51.5778 104.569 51.3668L104.541 52.3668C103.963 52.3576 103.468 52.3485 103.083 52.3485C102.761 52.3576 102.22 52.3576 101.459 52.3668ZM104.89 46.5962C104.853 47.4586 104.835 47.9815 104.835 48.1741C104.835 48.6604 104.881 49.0457 104.972 49.3393C105.064 49.6237 105.229 49.853 105.486 50.0274C105.743 50.2017 106.018 50.2842 106.339 50.2842C106.661 50.2842 106.954 50.2017 107.193 50.0274C107.44 49.853 107.624 49.6053 107.752 49.2751C107.881 48.9448 107.945 48.5962 107.945 48.2384C107.945 47.6971 107.789 47.2567 107.486 46.9264C107.174 46.5962 106.734 46.431 106.156 46.431C105.789 46.4219 105.367 46.4769 104.89 46.5962Z" fill="#2E3192"/>
<path d="M112.395 52.367L112.651 48.9083L112.734 46.9175C112.743 46.5597 112.743 46.1927 112.743 45.8166C112.743 45.4404 112.734 44.9634 112.725 44.4037C113.385 44.4129 113.908 44.4221 114.294 44.4221C114.743 44.4221 115.266 44.4129 115.853 44.4037L115.817 45.2845C116.028 45.0551 116.202 44.89 116.339 44.7707C116.477 44.6606 116.633 44.5597 116.807 44.468C116.982 44.3762 117.165 44.312 117.358 44.2661C117.55 44.2203 117.743 44.2019 117.954 44.2019C118.147 44.2019 118.367 44.2294 118.606 44.2845C118.615 44.8533 118.624 45.3212 118.642 45.6881L118.697 46.89C118.395 46.8074 118.119 46.7615 117.862 46.7615C117.541 46.7615 117.257 46.8074 117.018 46.8992C116.78 46.9909 116.569 47.1285 116.395 47.312C116.22 47.4955 116.064 47.7248 115.963 48.0001C115.853 48.2753 115.78 48.7157 115.734 49.312C115.688 49.9083 115.67 50.5964 115.67 51.367C115.67 51.6331 115.679 51.9725 115.697 52.3762C115.174 52.367 114.642 52.3579 114.11 52.3579C113.569 52.3579 113 52.3579 112.395 52.367Z" fill="#2E3192"/>
<path d="M120.339 46.679C120.44 46.1652 120.505 45.8074 120.532 45.6147C120.56 45.4221 120.606 45.1193 120.661 44.6973C122.229 44.367 123.569 44.2019 124.697 44.2019C125.339 44.2019 125.927 44.2753 126.459 44.4129C126.991 44.5505 127.404 44.7707 127.706 45.0826C128.009 45.3854 128.156 45.8258 128.156 46.4037C128.156 46.6973 128.119 47.3487 128.037 48.367C127.954 49.3854 127.89 50.7248 127.853 52.3762C127.321 52.367 126.789 52.3579 126.266 52.3579C125.752 52.3579 125.211 52.367 124.633 52.3762C124.706 51.8074 124.789 50.6239 124.881 48.8349C124.679 48.9267 124.514 49.0001 124.394 49.0368C124.275 49.0735 124.073 49.1377 123.78 49.2203C123.486 49.3028 123.257 49.3762 123.092 49.4313C122.927 49.4863 122.78 49.5597 122.661 49.6514C122.541 49.7432 122.45 49.8349 122.404 49.9267C122.358 50.0184 122.33 50.1193 122.33 50.2386C122.33 50.4129 122.404 50.5689 122.55 50.6881C122.697 50.8166 122.927 50.8716 123.248 50.8716C123.358 50.8716 123.486 50.8625 123.615 50.8441C123.743 50.8258 123.927 50.7799 124.147 50.7065C123.991 51.1102 123.798 51.6881 123.587 52.4588C123.119 52.5322 122.679 52.5689 122.257 52.5689C121.587 52.5689 121.018 52.4771 120.578 52.3028C120.128 52.1285 119.789 51.8349 119.541 51.4313C119.303 51.0276 119.183 50.6331 119.183 50.2294C119.183 49.9817 119.229 49.7432 119.321 49.5138C119.413 49.2753 119.55 49.0551 119.743 48.8258C119.936 48.6056 120.156 48.4129 120.413 48.2569C120.67 48.101 121.018 47.945 121.459 47.8074C121.899 47.6698 122.459 47.5322 123.138 47.4129C123.422 47.3579 123.679 47.3028 123.917 47.2478C124.156 47.1836 124.321 47.1377 124.422 47.0918C124.523 47.0459 124.606 46.9909 124.67 46.9358C124.734 46.8808 124.78 46.8166 124.807 46.7524C124.835 46.6881 124.853 46.6147 124.853 46.5505C124.853 46.3487 124.761 46.2019 124.587 46.0918C124.413 45.9817 124.156 45.9358 123.817 45.9358C122.872 45.9267 121.716 46.1744 120.339 46.679Z" fill="#2E3192"/>
<path d="M135.743 50.0825C135.642 50.5228 135.56 50.9449 135.495 51.3577L135.312 52.3118C134.771 52.4219 134.358 52.4953 134.055 52.532C133.752 52.5595 133.459 52.5779 133.183 52.5779C132.725 52.5779 132.312 52.5412 131.954 52.4678C131.596 52.3944 131.294 52.2568 131.055 52.055C130.817 51.8531 130.651 51.6238 130.569 51.3669C130.477 51.11 130.44 50.8348 130.44 50.5412C130.44 50.4861 130.44 50.3944 130.45 50.266C130.459 50.1375 130.477 49.8348 130.505 49.3852L130.688 46.688H129.422C129.45 46.3302 129.477 45.8531 129.495 45.266L129.523 44.5412H130.872C130.908 44.3027 130.945 43.7797 130.991 42.9724L132.385 42.6972C132.642 42.6513 133.183 42.532 134.018 42.3394C133.982 43.0183 133.954 43.7522 133.936 44.5412H135.78C135.734 45.6238 135.716 46.3394 135.716 46.688H133.844L133.743 48.6329C133.734 48.9265 133.725 49.11 133.725 49.1926C133.725 49.4403 133.752 49.6513 133.807 49.8164C133.862 49.9816 133.963 50.1008 134.11 50.1742C134.257 50.2476 134.413 50.2843 134.587 50.2843C134.716 50.2843 134.853 50.2751 134.991 50.2568C135.138 50.2293 135.385 50.1742 135.743 50.0825Z" fill="#2E3192"/>
<path d="M136.734 52.367C136.807 51.734 136.862 51.211 136.908 50.7982C136.945 50.3853 136.982 49.8624 137.018 49.2202C137.055 48.578 137.083 47.8716 137.11 47.1009C137.138 46.3303 137.156 45.4312 137.174 44.4037C137.881 44.4129 138.45 44.422 138.872 44.422C139.257 44.422 139.807 44.422 140.532 44.4037C140.44 45.3853 140.367 46.2477 140.33 46.9908C140.294 47.734 140.266 48.523 140.257 49.3486C140.239 50.8257 140.22 51.8257 140.22 52.3578C139.578 52.3486 139.018 52.3395 138.55 52.3395C138.092 52.3578 137.486 52.3578 136.734 52.367ZM137.248 43.4129C137.284 42.7982 137.294 42.3028 137.294 41.945C137.294 41.8441 137.294 41.6973 137.284 41.5229C137.945 41.5321 138.495 41.5413 138.936 41.5413C139.55 41.5413 140.092 41.5321 140.55 41.5229C140.532 41.6881 140.523 41.8165 140.514 41.9266L140.468 42.8899C140.459 43.0367 140.45 43.2019 140.45 43.4037C139.908 43.3945 139.394 43.3853 138.899 43.3853C138.404 43.3945 137.844 43.4037 137.248 43.4129Z" fill="#2E3192"/>
<path d="M146.835 44.2109C147.514 44.2109 148.156 44.3119 148.78 44.5045C149.404 44.7064 149.927 44.9908 150.358 45.3577C150.789 45.7247 151.101 46.1651 151.312 46.6605C151.514 47.1559 151.615 47.688 151.615 48.266C151.615 48.8256 151.523 49.3486 151.339 49.8531C151.156 50.3577 150.853 50.8256 150.413 51.266C149.982 51.7064 149.422 52.0366 148.752 52.2476C148.083 52.4678 147.367 52.5779 146.624 52.5779C145.936 52.5779 145.266 52.4862 144.633 52.2935C144 52.1008 143.468 51.8164 143.037 51.4495C142.615 51.0825 142.284 50.6421 142.073 50.1284C141.853 49.6146 141.752 49.0733 141.752 48.5045C141.752 47.9357 141.853 47.3944 142.064 46.8807C142.275 46.3669 142.605 45.9082 143.055 45.4953C143.505 45.0825 144.073 44.7706 144.734 44.5504C145.422 44.321 146.119 44.2109 146.835 44.2109ZM146.78 46.5045C146.431 46.5045 146.119 46.5871 145.853 46.7614C145.578 46.9357 145.376 47.1834 145.239 47.5137C145.101 47.844 145.028 48.2018 145.028 48.5963C145.028 49.1651 145.174 49.6054 145.477 49.9082C145.771 50.2109 146.147 50.3669 146.606 50.3669C146.945 50.3669 147.257 50.2752 147.523 50.1008C147.798 49.9265 148 49.6697 148.138 49.3302C148.275 48.9908 148.349 48.6238 148.349 48.2385C148.349 47.9174 148.294 47.6238 148.183 47.3669C148.073 47.11 147.899 46.899 147.651 46.743C147.404 46.5779 147.11 46.5045 146.78 46.5045Z" fill="#2E3192"/>
<path d="M152.734 52.367C152.89 51.1835 153.009 49.8808 153.092 48.4587C153.174 47.0367 153.22 45.6789 153.239 44.4129C153.89 44.422 154.45 44.4312 154.927 44.4312C155.477 44.4312 156 44.422 156.514 44.4129L156.431 45.4771C156.615 45.2844 156.761 45.1285 156.899 45.0184C157.028 44.9083 157.193 44.7982 157.385 44.6881C157.578 44.578 157.78 44.4954 158 44.4312C158.22 44.367 158.459 44.312 158.716 44.2753C158.972 44.2386 159.248 44.2202 159.523 44.2202C159.917 44.2202 160.294 44.2569 160.67 44.3395C161.046 44.4221 161.349 44.5321 161.606 44.6789C161.853 44.8257 162.064 45.0092 162.229 45.2294C162.395 45.4496 162.505 45.6881 162.56 45.945C162.615 46.2019 162.642 46.4587 162.642 46.734C162.642 46.9266 162.615 47.3578 162.578 48.0092L162.44 50.8349C162.413 51.3945 162.404 51.9083 162.404 52.3762C161.853 52.367 161.339 52.3578 160.862 52.3578C160.22 52.3578 159.624 52.367 159.092 52.3762C159.138 51.9083 159.193 51.2019 159.248 50.2661C159.303 49.3303 159.33 48.6789 159.33 48.2936C159.33 47.7065 159.211 47.2936 158.972 47.0643C158.734 46.8349 158.44 46.7156 158.083 46.7156C157.771 46.7156 157.468 46.8165 157.193 47.0092C156.908 47.211 156.697 47.4954 156.541 47.8716C156.385 48.2477 156.284 48.8716 156.22 49.734C156.156 50.5964 156.11 51.4771 156.092 52.367C155.55 52.3578 155.018 52.3487 154.505 52.3487C153.963 52.3578 153.376 52.3578 152.734 52.367Z" fill="#2E3192"/>
<path d="M169.101 46.679C169.202 46.1652 169.266 45.8074 169.294 45.6147C169.321 45.4221 169.367 45.1193 169.422 44.6973C170.991 44.367 172.33 44.2019 173.459 44.2019C174.101 44.2019 174.688 44.2753 175.22 44.4129C175.752 44.5505 176.165 44.7707 176.468 45.0826C176.771 45.3854 176.917 45.8258 176.917 46.4037C176.917 46.6973 176.881 47.3487 176.798 48.367C176.716 49.3854 176.651 50.7248 176.615 52.3762C176.083 52.367 175.55 52.3579 175.028 52.3579C174.514 52.3579 173.972 52.367 173.395 52.3762C173.468 51.8074 173.55 50.6239 173.642 48.8349C173.44 48.9267 173.275 49.0001 173.156 49.0368C173.037 49.0735 172.835 49.1377 172.541 49.2203C172.248 49.3028 172.018 49.3762 171.853 49.4313C171.688 49.4863 171.541 49.5597 171.422 49.6514C171.303 49.7432 171.211 49.8349 171.165 49.9267C171.11 50.0184 171.092 50.1193 171.092 50.2386C171.092 50.4129 171.165 50.5689 171.312 50.6881C171.459 50.8166 171.697 50.8716 172.009 50.8716C172.119 50.8716 172.248 50.8625 172.376 50.8441C172.505 50.8258 172.688 50.7799 172.917 50.7065C172.761 51.1102 172.569 51.6881 172.358 52.4588C171.89 52.5322 171.45 52.5689 171.028 52.5689C170.358 52.5689 169.789 52.4771 169.349 52.3028C168.899 52.1285 168.56 51.8349 168.312 51.4313C168.073 51.0276 167.945 50.6331 167.945 50.2294C167.945 49.9817 167.991 49.7432 168.083 49.5138C168.174 49.2753 168.312 49.0551 168.505 48.8258C168.697 48.6056 168.917 48.4129 169.174 48.2569C169.431 48.101 169.78 47.945 170.22 47.8074C170.661 47.6698 171.22 47.5322 171.899 47.4129C172.183 47.3579 172.44 47.3028 172.679 47.2478C172.917 47.1836 173.083 47.1377 173.183 47.0918C173.284 47.0459 173.367 46.9909 173.431 46.9358C173.495 46.8808 173.541 46.8166 173.569 46.7524C173.596 46.6881 173.606 46.6147 173.606 46.5505C173.606 46.3487 173.514 46.2019 173.339 46.0918C173.165 45.9817 172.908 45.9358 172.578 45.9358C171.624 45.9267 170.477 46.1744 169.101 46.679Z" fill="#2E3192"/>
<path d="M178.358 52.367C178.514 51.1835 178.633 49.8808 178.716 48.4587C178.798 47.0367 178.853 45.6789 178.862 44.4129C179.514 44.422 180.073 44.4312 180.55 44.4312C181.101 44.4312 181.624 44.422 182.128 44.4129L182.046 45.4771C182.229 45.2844 182.376 45.1285 182.514 45.0184C182.642 44.9083 182.807 44.7982 183 44.6881C183.193 44.578 183.394 44.4954 183.615 44.4312C183.835 44.367 184.073 44.312 184.33 44.2753C184.587 44.2386 184.862 44.2202 185.138 44.2202C185.532 44.2202 185.908 44.2569 186.284 44.3395C186.661 44.4221 186.963 44.5321 187.22 44.6789C187.468 44.8257 187.679 45.0092 187.844 45.2294C188.009 45.4496 188.119 45.6881 188.174 45.945C188.229 46.2019 188.257 46.4587 188.257 46.734C188.257 46.9266 188.239 47.3578 188.193 48.0092L188.055 50.8349C188.028 51.3945 188.018 51.9083 188.018 52.3762C187.468 52.367 186.954 52.3578 186.477 52.3578C185.835 52.3578 185.239 52.367 184.706 52.3762C184.752 51.9083 184.807 51.2019 184.862 50.2661C184.917 49.3303 184.945 48.6789 184.945 48.2936C184.945 47.7065 184.826 47.2936 184.587 47.0643C184.349 46.8349 184.055 46.7156 183.697 46.7156C183.385 46.7156 183.083 46.8165 182.807 47.0092C182.523 47.211 182.312 47.4954 182.156 47.8716C182 48.2477 181.899 48.8716 181.835 49.734C181.771 50.5964 181.734 51.4771 181.706 52.367C181.165 52.3578 180.633 52.3487 180.119 52.3487C179.578 52.3578 178.991 52.3578 178.358 52.367Z" fill="#2E3192"/>
<path d="M198.954 52.3668C198.376 52.3576 197.89 52.3485 197.505 52.3485C197.073 52.3485 196.541 52.3576 195.927 52.3668L195.972 51.376C195.761 51.5778 195.578 51.7338 195.422 51.8531C195.266 51.9723 195.064 52.0916 194.817 52.2108C194.569 52.3209 194.303 52.4127 194.018 52.4769C193.734 52.5411 193.44 52.5686 193.138 52.5686C192.615 52.5686 192.128 52.4769 191.679 52.2934C191.229 52.1099 190.835 51.8531 190.514 51.5136C190.193 51.1742 189.954 50.7797 189.798 50.3209C189.642 49.8622 189.56 49.3852 189.56 48.8897C189.56 48.1925 189.706 47.5044 189.991 46.8347C190.275 46.165 190.651 45.6329 191.119 45.2567C191.587 44.8714 192.11 44.5962 192.697 44.4402C193.284 44.2842 193.917 44.2017 194.596 44.2017C195.046 44.2017 195.578 44.2384 196.174 44.3209C196.22 43.7063 196.248 42.8347 196.266 41.7246C196.936 41.7338 197.477 41.743 197.899 41.743C198.45 41.743 199 41.7338 199.56 41.7246C199.404 43.2659 199.266 45.1466 199.147 47.376C199.018 49.6053 198.954 51.2659 198.954 52.3668ZM196.055 46.3485C195.771 46.2842 195.495 46.2567 195.239 46.2567C194.716 46.2567 194.266 46.3576 193.89 46.5503C193.523 46.743 193.239 47.0457 193.037 47.4586C192.835 47.8714 192.743 48.2751 192.743 48.6787C192.743 48.9815 192.798 49.2475 192.908 49.4953C193.018 49.7338 193.193 49.9264 193.422 50.0641C193.651 50.2017 193.908 50.2751 194.193 50.2751C194.495 50.2751 194.761 50.1925 195.009 50.0365C195.257 49.8806 195.459 49.642 195.615 49.3301C195.771 49.0182 195.881 48.6512 195.936 48.22C195.991 47.7888 196.028 47.165 196.055 46.3485Z" fill="#2E3192"/>
<path d="M29.7523 66.5595C29.8257 65.9265 29.8807 65.4035 29.9266 64.9907C29.9633 64.5779 30 64.0549 30.0367 63.4127C30.0734 62.7705 30.1009 62.0641 30.1284 61.2935C30.156 60.5228 30.1743 59.6237 30.1927 58.5962C30.8991 58.6054 31.4679 58.6146 31.8899 58.6146C32.2752 58.6146 32.8349 58.6146 33.5505 58.5962C33.4587 59.5779 33.3853 60.4402 33.3486 61.1834C33.3119 61.9265 33.2844 62.7155 33.2752 63.5412C33.2569 65.0182 33.2385 66.0182 33.2385 66.5503C32.5963 66.5412 32.0367 66.532 31.5688 66.532C31.1009 66.5412 30.4954 66.5503 29.7523 66.5595ZM30.2661 57.5962C30.2936 56.9815 30.3119 56.4861 30.3119 56.1283C30.3119 56.0274 30.3119 55.8806 30.3027 55.7063C30.9633 55.7155 31.5138 55.7246 31.9541 55.7246C32.5688 55.7246 33.1101 55.7155 33.5688 55.7063C33.5505 55.8714 33.5413 55.9999 33.5413 56.11L33.4954 57.0733C33.4862 57.2201 33.4771 57.3944 33.4771 57.587C32.9358 57.5779 32.422 57.5687 31.9266 57.5687C31.4128 57.587 30.8624 57.587 30.2661 57.5962Z" fill="#2E3192"/>
<path d="M34.9174 66.5595C35.0734 65.376 35.1927 64.0733 35.2752 62.6513C35.3578 61.2201 35.4128 59.8715 35.422 58.6054C36.0734 58.6146 36.633 58.6237 37.1101 58.6237C37.6606 58.6237 38.1835 58.6146 38.6881 58.6054L38.6055 59.6696C38.7798 59.477 38.9358 59.321 39.0734 59.2109C39.2018 59.1008 39.367 58.9907 39.5596 58.8806C39.7523 58.7705 39.9541 58.688 40.1743 58.6146C40.3945 58.5504 40.633 58.4953 40.8899 58.4586C41.1468 58.4219 41.422 58.4036 41.6973 58.4036C42.0917 58.4036 42.4679 58.4403 42.844 58.5228C43.2202 58.6054 43.5229 58.7155 43.7798 58.8623C44.0275 59.0091 44.2385 59.1926 44.4037 59.4127C44.5688 59.6329 44.6789 59.8715 44.7339 60.1283C44.789 60.3852 44.8165 60.6421 44.8165 60.9173C44.8165 61.11 44.789 61.5412 44.7523 62.1926L44.6147 65.0182C44.5872 65.5779 44.578 66.0916 44.578 66.5595C44.0275 66.5504 43.5138 66.5412 43.0367 66.5412C42.3945 66.5412 41.8073 66.5504 41.2752 66.5595C41.3211 66.0916 41.3761 65.3852 41.4312 64.4494C41.4862 63.5137 41.5138 62.8623 41.5138 62.477C41.5138 61.8898 41.3945 61.477 41.156 61.2476C40.9174 61.0182 40.6239 60.899 40.2661 60.899C39.9541 60.899 39.6514 60.9999 39.3761 61.1926C39.0917 61.3944 38.8807 61.6788 38.7248 62.0549C38.5688 62.4311 38.4679 63.0549 38.4037 63.9173C38.3395 64.7797 38.3028 65.6604 38.2752 66.5504C37.7339 66.5412 37.2018 66.532 36.6881 66.532C36.1468 66.5412 35.5596 66.5412 34.9174 66.5595Z" fill="#2E3192"/>
<path d="M46.2844 66.4037C46.2661 66.1744 46.2385 65.9358 46.2202 65.679C46.1927 65.4221 46.1651 65.0826 46.1101 64.6423L46.0459 64.0826C46.5688 64.2845 47.0275 64.4313 47.4037 64.523C47.7798 64.6148 48.1284 64.6698 48.4495 64.6698C48.7156 64.6698 48.9358 64.6423 49.1009 64.5964C49.2661 64.5505 49.3853 64.4863 49.4679 64.3946C49.5413 64.3028 49.578 64.2203 49.578 64.1193C49.578 64.0368 49.5505 63.9542 49.4954 63.8716C49.4404 63.7891 49.3119 63.679 49.1101 63.5414C48.6697 63.2294 48.2752 62.945 47.9358 62.6881C47.5963 62.4313 47.3394 62.2111 47.1743 62.0092C47 61.8166 46.8716 61.5964 46.7798 61.367C46.6881 61.1377 46.6422 60.8992 46.6422 60.6606C46.6422 60.2294 46.7706 59.8258 47.0275 59.4496C47.2844 59.0735 47.6697 58.8074 48.1651 58.6331C48.6697 58.468 49.2752 58.3762 50 58.3762C50.7523 58.3762 51.7156 58.468 52.8899 58.6606L53.0183 60.8441C52.3578 60.5964 51.7248 60.468 51.1193 60.468C50.6881 60.468 50.3761 60.5138 50.1835 60.5964C49.9908 60.679 49.8899 60.8074 49.8899 60.9817C49.8899 61.0368 49.8991 61.0918 49.9266 61.1469C49.945 61.2019 49.9908 61.257 50.0459 61.312C50.1009 61.367 50.1743 61.4313 50.2569 61.4863C50.3394 61.5505 50.5413 61.6881 50.8716 61.9083C51.1927 62.1285 51.4495 62.3028 51.633 62.4496C51.9358 62.679 52.1651 62.89 52.3303 63.0826C52.4862 63.2753 52.6147 63.4863 52.6972 63.7065C52.7798 63.9267 52.8257 64.1652 52.8257 64.4037C52.8257 64.7707 52.7339 65.1102 52.5413 65.4221C52.3578 65.734 52.0734 65.9909 51.6972 66.2019C51.3211 66.4129 50.9083 66.5505 50.4679 66.6331C50.0275 66.7157 49.578 66.7524 49.1101 66.7524C48.7982 66.7524 48.4037 66.7248 47.9266 66.679C47.4587 66.6331 46.9083 66.5414 46.2844 66.4037Z" fill="#2E3192"/>
<path d="M60.4679 64.2661C60.367 64.7064 60.2844 65.1285 60.211 65.5413L60.0275 66.4954C59.4862 66.6055 59.0734 66.6789 58.7706 66.7156C58.4679 66.7431 58.1743 66.7615 57.8991 66.7615C57.4404 66.7615 57.0275 66.7248 56.6697 66.6514C56.3119 66.578 56.0092 66.4404 55.7707 66.2385C55.5321 66.0367 55.367 65.8073 55.2844 65.5505C55.1927 65.2936 55.156 65.0184 55.156 64.7248C55.156 64.6697 55.156 64.578 55.1651 64.4496C55.1743 64.3211 55.1927 64.0184 55.2202 63.5688L55.3945 60.8716H54.1284C54.156 60.5138 54.1835 60.0367 54.2018 59.4496L54.2294 58.7248H55.578C55.6055 58.4863 55.6514 57.9633 55.6973 57.156L57.0918 56.8807C57.3486 56.8349 57.8899 56.7156 58.7248 56.5229C58.6881 57.2018 58.6606 57.9358 58.6422 58.7248H60.4954C60.4496 59.8074 60.4312 60.5229 60.4312 60.8716H58.5596L58.4587 62.8165C58.4496 63.1101 58.4404 63.2936 58.4404 63.3762C58.4404 63.6239 58.4679 63.8349 58.5229 64C58.578 64.1652 58.6789 64.2844 58.8257 64.3578C58.9725 64.4312 59.1284 64.4679 59.3028 64.4679C59.4312 64.4679 59.5688 64.4587 59.7064 64.4404C59.8532 64.4129 60.1101 64.3578 60.4679 64.2661Z" fill="#2E3192"/>
<path d="M61.5046 66.5597L61.7615 63.101L61.844 61.1101C61.8532 60.7523 61.8532 60.3854 61.8532 60.0092C61.8532 59.6331 61.844 59.156 61.8349 58.5964C62.4954 58.6055 63.0184 58.6147 63.4037 58.6147C63.8532 58.6147 64.3761 58.6055 64.9633 58.5964L64.9266 59.4771C65.1376 59.2477 65.3119 59.0826 65.4495 58.9633C65.5872 58.8532 65.7431 58.7523 65.9174 58.6606C66.0917 58.5688 66.2752 58.5046 66.4679 58.4588C66.6606 58.4129 66.8532 58.3945 67.0642 58.3945C67.2569 58.3945 67.4771 58.4221 67.7156 58.4679C67.7248 59.0367 67.7339 59.5046 67.7523 59.8716L67.8073 61.0734C67.5138 60.9909 67.2294 60.945 66.9725 60.945C66.6514 60.945 66.367 60.9909 66.1284 61.0826C65.8899 61.1743 65.6789 61.312 65.5046 61.4954C65.3211 61.6789 65.1743 61.9083 65.0734 62.1835C64.9633 62.4587 64.8899 62.8991 64.844 63.4954C64.7982 64.0918 64.7798 64.7798 64.7798 65.5505C64.7798 65.8165 64.789 66.156 64.8165 66.5597C64.2844 66.5505 63.7615 66.5413 63.2294 66.5413C62.6697 66.5413 62.1009 66.5413 61.5046 66.5597Z" fill="#2E3192"/>
<path d="M77.7982 66.5595C77.1743 66.5503 76.6606 66.5411 76.2477 66.5411C75.7339 66.5411 75.2202 66.5503 74.7064 66.5595L74.6972 65.4953C74.5046 65.7246 74.3395 65.9081 74.2018 66.0182C74.0642 66.1375 73.9174 66.2384 73.7615 66.3301C73.6055 66.4219 73.422 66.4953 73.2202 66.5595C73.0184 66.6237 72.7982 66.6788 72.5413 66.7155C72.2844 66.7522 72.0184 66.7705 71.7523 66.7705C71.3211 66.7705 70.9174 66.7246 70.5321 66.6237C70.1468 66.532 69.8165 66.3668 69.5229 66.1375C69.2294 65.9081 69.0367 65.6512 68.9266 65.3577C68.8165 65.0641 68.7706 64.7338 68.7706 64.3485C68.7706 64.2567 68.7798 64.11 68.7982 63.9081L68.9266 62.1375C68.9633 61.4861 69 60.7705 69.0275 59.9815C69.0459 59.4953 69.0642 59.0366 69.0642 58.6054C69.7339 58.6145 70.3119 58.6237 70.7798 58.6237C71.2569 58.6237 71.789 58.6145 72.3578 58.6054L72.1101 61.5687C72.0734 62.0182 72.0459 62.3301 72.0459 62.4953C72.0459 62.6604 72.0459 62.7705 72.0459 62.8256C72.0459 63.3668 72.1651 63.743 72.3945 63.9356C72.6239 64.1283 72.8991 64.22 73.2202 64.22C73.3486 64.22 73.4771 64.2017 73.6147 64.165C73.7431 64.1283 73.8716 64.0733 73.9908 64.009C74.0917 63.9448 74.1927 63.8714 74.2752 63.7705C74.367 63.6696 74.4495 63.5503 74.5229 63.4127C74.6147 63.2384 74.6789 63.0549 74.7156 62.8622C74.7798 62.587 74.8257 62.2384 74.8532 61.8164C74.8716 61.5136 74.9083 60.9815 74.945 60.2292L75.0092 58.5962C75.7064 58.6054 76.2844 58.6145 76.7339 58.6145C77.2385 58.6145 77.7431 58.6054 78.2569 58.5962C78.1284 59.9173 78.0367 61.1742 77.9633 62.3577C77.8899 63.5503 77.8349 64.954 77.7982 66.5595Z" fill="#2E3192"/>
<path d="M79.6606 66.5597L79.8899 62.7982L80.0184 59.8624L80.0367 58.5964C80.633 58.6055 81.1651 58.6147 81.6147 58.6147C82.1284 58.6147 82.633 58.6055 83.1193 58.5964L83.0642 59.6331C83.2294 59.4221 83.3761 59.2661 83.4954 59.156C83.6147 59.0459 83.7523 58.9358 83.9266 58.8349C84.0917 58.734 84.2661 58.6514 84.4495 58.5964C84.633 58.5413 84.8349 58.4863 85.055 58.4496C85.2752 58.4129 85.5138 58.3945 85.7523 58.3945C86.0275 58.3945 86.2844 58.4129 86.5138 58.4588C86.7431 58.5046 86.945 58.5597 87.1193 58.6239C87.2844 58.6881 87.4312 58.7707 87.5596 58.8532C87.6881 58.945 87.7982 59.0459 87.8899 59.156C87.9817 59.2661 88.0917 59.4312 88.2202 59.6422C88.4587 59.312 88.7156 59.0551 88.9817 58.8899C89.2477 58.7156 89.5505 58.5964 89.8899 58.5138C90.2294 58.4312 90.578 58.3945 90.9358 58.3945C91.4037 58.3945 91.8532 58.4588 92.2752 58.5872C92.6973 58.7156 93.0367 58.945 93.3028 59.2569C93.5688 59.578 93.7064 59.9909 93.7064 60.5046C93.7064 60.7432 93.6881 61.1009 93.6514 61.5872C93.6147 62.0734 93.5688 62.8991 93.5046 64.0734C93.4404 65.2477 93.4037 66.0734 93.4037 66.5505C92.9083 66.5413 92.422 66.5321 91.9541 66.5321C91.3853 66.5321 90.789 66.5413 90.1651 66.5505C90.2202 65.8899 90.2752 65.0643 90.3303 64.0643C90.3853 63.0734 90.4128 62.3762 90.4128 61.9909C90.4128 61.6514 90.3761 61.4037 90.2936 61.2386C90.211 61.0734 90.1101 60.9633 89.9817 60.8991C89.8532 60.8349 89.7156 60.8074 89.5596 60.8074C89.3945 60.8074 89.2569 60.8349 89.1376 60.8899C89.0092 60.9542 88.8899 61.0459 88.7982 61.1835C88.6697 61.3578 88.5596 61.578 88.4771 61.8349C88.4128 62.0367 88.3578 62.3487 88.3211 62.7707C88.2844 63.1927 88.2569 63.7615 88.2294 64.4496L88.1651 66.5413C87.5872 66.5321 87.0642 66.523 86.5963 66.523C86.1193 66.523 85.5596 66.5321 84.9083 66.5413C84.9541 66.0826 85.0183 65.3028 85.0826 64.211C85.1468 63.1193 85.1835 62.3945 85.1835 62.0184C85.1835 61.7065 85.1468 61.4679 85.0826 61.3211C85.0183 61.1652 84.9266 61.0367 84.8073 60.945C84.6881 60.8532 84.5321 60.8074 84.3395 60.8074C84.1284 60.8074 83.945 60.8624 83.7798 60.9817C83.6239 61.101 83.4862 61.2753 83.3761 61.4954C83.2661 61.7156 83.1835 62.0276 83.1376 62.4221C83.0917 62.8165 83.0459 63.4129 83.0092 64.2202C82.9725 65.0276 82.945 65.7982 82.9358 66.5413C82.2752 66.5321 81.7431 66.523 81.3395 66.523C80.8899 66.5413 80.3303 66.5413 79.6606 66.5597Z" fill="#2E3192"/>
<path d="M103.257 64.2018C103.183 64.5137 103.046 65.266 102.853 66.4587C102.22 66.5779 101.697 66.6605 101.266 66.6972C100.835 66.7339 100.404 66.7522 99.9633 66.7522C99.3211 66.7522 98.7248 66.7064 98.1835 66.6238C97.6422 66.5412 97.1743 66.3853 96.7798 66.1651C96.3853 65.9449 96.055 65.6788 95.789 65.3486C95.5229 65.0275 95.3211 64.6421 95.1835 64.1926C95.0459 63.7431 94.9725 63.2843 94.9725 62.8164C94.9725 62.1559 95.1101 61.5045 95.3853 60.8623C95.6606 60.2293 96.0183 59.7247 96.4587 59.3761C96.8991 59.0183 97.4037 58.7614 97.9725 58.6146C98.5413 58.4586 99.1284 58.3853 99.7248 58.3853C100.339 58.3853 100.936 58.4586 101.495 58.5963C102.055 58.7339 102.532 58.9724 102.927 59.321C103.321 59.6605 103.596 60.055 103.761 60.4862C103.927 60.9174 104.009 61.3853 104.009 61.8807C104.009 62.1742 103.972 62.5045 103.899 62.8715L98.1927 62.8807C98.1835 62.9632 98.1835 63.0366 98.1835 63.1008C98.1835 63.6605 98.3945 64.0733 98.8073 64.3394C99.2294 64.6054 99.7339 64.7339 100.339 64.7339C100.697 64.7339 101.11 64.6972 101.569 64.6146C102.018 64.532 102.587 64.3944 103.257 64.2018ZM98.2477 61.688H100.936C100.945 61.5963 100.945 61.5229 100.945 61.4586C100.945 61.1926 100.899 60.9541 100.798 60.7614C100.697 60.5687 100.55 60.4311 100.367 60.3394C100.183 60.2476 99.9725 60.2109 99.7339 60.2109C99.5688 60.2109 99.4128 60.2385 99.2661 60.2843C99.1101 60.3302 98.9725 60.4036 98.8532 60.5045C98.7339 60.6054 98.633 60.7155 98.5505 60.8348C98.4679 60.9632 98.4128 61.0825 98.3761 61.2018C98.3211 61.3119 98.2844 61.477 98.2477 61.688Z" fill="#2E3192"/>
<path d="M104.982 66.5595C105.138 65.376 105.257 64.0733 105.339 62.6513C105.422 61.2201 105.468 59.8715 105.486 58.6054C106.138 58.6146 106.697 58.6237 107.174 58.6237C107.725 58.6237 108.248 58.6146 108.752 58.6054L108.67 59.6696C108.853 59.477 109 59.321 109.138 59.2109C109.266 59.1008 109.431 58.9907 109.624 58.8806C109.817 58.7705 110.018 58.688 110.239 58.6146C110.459 58.5504 110.697 58.4953 110.954 58.4586C111.211 58.4219 111.486 58.4036 111.761 58.4036C112.156 58.4036 112.532 58.4403 112.908 58.5228C113.284 58.6054 113.596 58.7155 113.844 58.8623C114.092 59.0091 114.303 59.1926 114.468 59.4127C114.633 59.6329 114.743 59.8715 114.798 60.1283C114.853 60.3852 114.881 60.6421 114.881 60.9173C114.881 61.11 114.853 61.5412 114.817 62.1926L114.679 65.0182C114.651 65.5779 114.642 66.0916 114.642 66.5595C114.092 66.5504 113.578 66.5412 113.101 66.5412C112.459 66.5412 111.862 66.5504 111.33 66.5595C111.376 66.0916 111.431 65.3852 111.486 64.4494C111.541 63.5137 111.569 62.8623 111.569 62.477C111.569 61.8898 111.45 61.477 111.211 61.2476C110.972 61.0182 110.679 60.899 110.321 60.899C110.009 60.899 109.706 60.9999 109.431 61.1926C109.147 61.3944 108.936 61.6788 108.78 62.0549C108.624 62.4311 108.523 63.0549 108.459 63.9173C108.395 64.7797 108.349 65.6604 108.33 66.5504C107.789 66.5412 107.257 66.532 106.743 66.532C106.211 66.5412 105.615 66.5412 104.982 66.5595Z" fill="#2E3192"/>
<path d="M122.468 64.2661C122.367 64.7064 122.284 65.1285 122.211 65.5413L122.028 66.4954C121.486 66.6055 121.073 66.6789 120.771 66.7156C120.468 66.7431 120.174 66.7615 119.899 66.7615C119.44 66.7615 119.028 66.7248 118.67 66.6514C118.312 66.578 118.009 66.4404 117.771 66.2385C117.532 66.0367 117.367 65.8073 117.284 65.5505C117.193 65.2936 117.156 65.0184 117.156 64.7248C117.156 64.6697 117.156 64.578 117.165 64.4496C117.174 64.3211 117.193 64.0184 117.22 63.5688L117.395 60.8716H116.128C116.156 60.5138 116.183 60.0367 116.202 59.4496L116.229 58.7248H117.578C117.615 58.4863 117.651 57.9633 117.697 57.156L119.092 56.8807C119.349 56.8349 119.89 56.7156 120.725 56.5229C120.688 57.2018 120.661 57.9358 120.642 58.7248H122.495C122.45 59.8074 122.431 60.5229 122.431 60.8716H120.56L120.459 62.8165C120.45 63.1101 120.44 63.2936 120.44 63.3762C120.44 63.6239 120.468 63.8349 120.523 64C120.578 64.1652 120.679 64.2844 120.826 64.3578C120.972 64.4312 121.128 64.4679 121.303 64.4679C121.431 64.4679 121.569 64.4587 121.716 64.4404C121.862 64.4129 122.11 64.3578 122.468 64.2661Z" fill="#2E3192"/>
<path d="M123.45 66.4037C123.431 66.1744 123.404 65.9358 123.385 65.679C123.367 65.4221 123.33 65.0826 123.284 64.6423L123.22 64.0826C123.743 64.2845 124.202 64.4313 124.578 64.523C124.954 64.6148 125.303 64.6698 125.624 64.6698C125.89 64.6698 126.11 64.6423 126.275 64.5964C126.44 64.5505 126.56 64.4863 126.642 64.3946C126.716 64.3028 126.752 64.2203 126.752 64.1193C126.752 64.0368 126.725 63.9542 126.67 63.8716C126.615 63.7891 126.486 63.679 126.284 63.5414C125.844 63.2294 125.45 62.945 125.11 62.6881C124.771 62.4313 124.514 62.2111 124.349 62.0092C124.174 61.8166 124.046 61.5964 123.954 61.367C123.862 61.1377 123.826 60.8992 123.826 60.6606C123.826 60.2294 123.954 59.8258 124.211 59.4496C124.468 59.0735 124.853 58.8074 125.349 58.6331C125.853 58.468 126.459 58.3762 127.183 58.3762C127.936 58.3762 128.899 58.468 130.073 58.6606L130.202 60.8441C129.541 60.5964 128.908 60.468 128.303 60.468C127.872 60.468 127.56 60.5138 127.367 60.5964C127.174 60.679 127.073 60.8074 127.073 60.9817C127.073 61.0368 127.083 61.0918 127.11 61.1469C127.128 61.2019 127.174 61.257 127.229 61.312C127.284 61.367 127.358 61.4313 127.44 61.4863C127.523 61.5505 127.734 61.6881 128.055 61.9083C128.376 62.1285 128.633 62.3028 128.817 62.4496C129.119 62.679 129.349 62.89 129.514 63.0826C129.67 63.2753 129.798 63.4863 129.881 63.7065C129.963 63.9267 130.009 64.1652 130.009 64.4037C130.009 64.7707 129.917 65.1102 129.725 65.4221C129.532 65.734 129.257 65.9909 128.881 66.2019C128.505 66.4129 128.092 66.5505 127.651 66.6331C127.211 66.7157 126.761 66.7524 126.294 66.7524C125.982 66.7524 125.587 66.7248 125.11 66.679C124.633 66.6331 124.073 66.5414 123.45 66.4037Z" fill="#2E3192"/>
<path d="M141.807 64.2661C141.706 64.7064 141.624 65.1285 141.55 65.5413L141.367 66.4954C140.826 66.6055 140.413 66.6789 140.11 66.7156C139.807 66.7431 139.514 66.7615 139.239 66.7615C138.78 66.7615 138.367 66.7248 138.009 66.6514C137.651 66.578 137.358 66.4404 137.11 66.2385C136.872 66.0367 136.706 65.8073 136.624 65.5505C136.532 65.2936 136.495 65.0184 136.495 64.7248C136.495 64.6697 136.495 64.578 136.505 64.4496C136.514 64.3211 136.532 64.0184 136.56 63.5688L136.734 60.8716H135.468C135.495 60.5138 135.514 60.0367 135.541 59.4496L135.569 58.7248H136.917C136.954 58.4863 136.991 57.9633 137.037 57.156L138.431 56.8807C138.688 56.8349 139.229 56.7156 140.064 56.5229C140.028 57.2018 140 57.9358 139.982 58.7248H141.835C141.789 59.8074 141.771 60.5229 141.771 60.8716H139.899L139.798 62.8165C139.789 63.1101 139.78 63.2936 139.78 63.3762C139.78 63.6239 139.807 63.8349 139.862 64C139.917 64.1652 140.018 64.2844 140.165 64.3578C140.312 64.4312 140.468 64.4679 140.642 64.4679C140.771 64.4679 140.908 64.4587 141.055 64.4404C141.193 64.4129 141.45 64.3578 141.807 64.2661Z" fill="#2E3192"/>
<path d="M142.835 66.5597L143.092 63.101L143.174 61.1101C143.183 60.7523 143.183 60.3854 143.183 60.0092C143.183 59.6331 143.174 59.156 143.165 58.5964C143.826 58.6055 144.349 58.6147 144.734 58.6147C145.183 58.6147 145.706 58.6055 146.294 58.5964L146.257 59.4771C146.468 59.2477 146.642 59.0826 146.78 58.9633C146.917 58.8532 147.073 58.7523 147.248 58.6606C147.422 58.5688 147.606 58.5046 147.798 58.4588C147.991 58.4129 148.183 58.3945 148.395 58.3945C148.587 58.3945 148.807 58.4221 149.046 58.4679C149.055 59.0367 149.064 59.5046 149.083 59.8716L149.138 61.0734C148.844 60.9909 148.56 60.945 148.303 60.945C147.982 60.945 147.697 60.9909 147.459 61.0826C147.22 61.1743 147.009 61.312 146.835 61.4954C146.651 61.6789 146.505 61.9083 146.404 62.1835C146.294 62.4587 146.22 62.8991 146.174 63.4954C146.128 64.0918 146.11 64.7798 146.11 65.5505C146.11 65.8165 146.119 66.156 146.138 66.5597C145.615 66.5505 145.083 66.5413 144.55 66.5413C144.009 66.5413 143.44 66.5413 142.835 66.5597Z" fill="#2E3192"/>
<path d="M150.78 60.8623C150.881 60.3486 150.945 59.9908 150.972 59.7981C151 59.6054 151.046 59.3027 151.101 58.8807C152.67 58.5504 154.009 58.3853 155.138 58.3853C155.78 58.3853 156.367 58.4495 156.899 58.5963C157.431 58.7339 157.844 58.9541 158.147 59.266C158.45 59.5687 158.596 60.0091 158.596 60.5871C158.596 60.8807 158.56 61.532 158.477 62.5504C158.395 63.5687 158.33 64.9082 158.294 66.5596C157.761 66.5504 157.229 66.5412 156.706 66.5412C156.193 66.5412 155.651 66.5504 155.073 66.5596C155.147 65.9908 155.229 64.8073 155.321 63.0183C155.119 63.11 154.954 63.1834 154.835 63.2201C154.716 63.2568 154.514 63.321 154.22 63.4036C153.927 63.4862 153.697 63.5596 153.532 63.6146C153.367 63.6697 153.22 63.7431 153.101 63.8348C152.982 63.9265 152.89 64.0183 152.844 64.11C152.789 64.2018 152.771 64.3027 152.771 64.422C152.771 64.5963 152.844 64.7522 152.991 64.8715C153.138 64.9999 153.367 65.055 153.688 65.055C153.798 65.055 153.927 65.0458 154.055 65.0275C154.183 65.0091 154.367 64.9632 154.596 64.8898C154.44 65.2935 154.248 65.8715 154.037 66.6421C153.569 66.7155 153.128 66.7522 152.706 66.7522C152.037 66.7522 151.468 66.6605 151.028 66.4862C150.578 66.3119 150.239 66.0183 149.991 65.6146C149.752 65.2109 149.633 64.8164 149.633 64.4128C149.633 64.1651 149.679 63.9265 149.771 63.6972C149.862 63.4678 150 63.2385 150.193 63.0091C150.385 62.7889 150.606 62.5963 150.862 62.4403C151.119 62.2843 151.468 62.1284 151.908 61.9908C152.349 61.8531 152.908 61.7155 153.587 61.5963C153.872 61.5412 154.128 61.4862 154.367 61.4311C154.606 61.3669 154.771 61.321 154.872 61.2752C154.972 61.2293 155.055 61.1742 155.119 61.1192C155.183 61.0642 155.229 60.9999 155.257 60.9357C155.284 60.8715 155.294 60.7981 155.294 60.7339C155.294 60.532 155.202 60.3853 155.037 60.2752C154.862 60.1651 154.605 60.1192 154.266 60.1192C153.312 60.11 152.156 60.3577 150.78 60.8623Z" fill="#2E3192"/>
<path d="M169.294 66.5597C168.716 66.5505 168.229 66.5413 167.844 66.5413C167.413 66.5413 166.881 66.5505 166.266 66.5597L166.312 65.5689C166.101 65.7707 165.917 65.9267 165.761 66.0459C165.606 66.1652 165.404 66.2845 165.156 66.4037C164.908 66.5138 164.642 66.6056 164.358 66.6698C164.073 66.734 163.78 66.7615 163.477 66.7615C162.954 66.7615 162.468 66.6698 162.018 66.4863C161.569 66.3028 161.174 66.0459 160.853 65.7065C160.532 65.367 160.294 64.9725 160.138 64.5138C159.982 64.0551 159.899 63.578 159.899 63.0826C159.899 62.3854 160.046 61.6973 160.33 61.0276C160.615 60.3578 160.991 59.8257 161.459 59.4496C161.927 59.0643 162.45 58.789 163.037 58.6331C163.624 58.4771 164.248 58.3945 164.936 58.3945C165.385 58.3945 165.917 58.4312 166.514 58.5138C166.56 57.8991 166.587 57.0276 166.606 55.9175C167.275 55.9267 167.817 55.9358 168.239 55.9358C168.789 55.9358 169.339 55.9267 169.899 55.9175C169.743 57.4588 169.606 59.3395 169.486 61.5689C169.358 63.789 169.294 65.4588 169.294 66.5597ZM166.394 60.5413C166.11 60.4771 165.835 60.4496 165.578 60.4496C165.055 60.4496 164.606 60.5505 164.229 60.7432C163.862 60.9358 163.578 61.2386 163.376 61.6514C163.174 62.0643 163.083 62.4679 163.083 62.8716C163.083 63.1744 163.138 63.4404 163.248 63.6881C163.358 63.9267 163.532 64.1193 163.761 64.2569C163.991 64.3945 164.248 64.4679 164.532 64.4679C164.835 64.4679 165.101 64.3854 165.349 64.2294C165.596 64.0734 165.798 63.8349 165.954 63.523C166.11 63.2111 166.22 62.8441 166.275 62.4129C166.33 61.9725 166.367 61.3578 166.394 60.5413Z" fill="#2E3192"/>
<path d="M171.083 66.5595C171.156 65.9265 171.211 65.4035 171.257 64.9907C171.294 64.5779 171.33 64.0549 171.367 63.4127C171.404 62.7705 171.431 62.0641 171.459 61.2935C171.486 60.5228 171.505 59.6237 171.523 58.5962C172.229 58.6054 172.798 58.6146 173.22 58.6146C173.606 58.6146 174.156 58.6146 174.881 58.5962C174.789 59.5779 174.716 60.4402 174.679 61.1834C174.642 61.9265 174.615 62.7155 174.596 63.5412C174.578 65.0182 174.56 66.0182 174.56 66.5503C173.917 66.5412 173.358 66.532 172.89 66.532C172.431 66.5412 171.826 66.5503 171.083 66.5595ZM171.596 57.5962C171.633 56.9815 171.642 56.4861 171.642 56.1283C171.642 56.0274 171.642 55.8806 171.633 55.7063C172.294 55.7155 172.844 55.7246 173.284 55.7246C173.899 55.7246 174.44 55.7155 174.899 55.7063C174.881 55.8714 174.872 55.9999 174.872 56.11L174.826 57.0733C174.817 57.2201 174.807 57.3944 174.807 57.587C174.266 57.5779 173.752 57.5687 173.257 57.5687C172.743 57.587 172.193 57.587 171.596 57.5962Z" fill="#2E3192"/>
<path d="M176.257 66.5595C176.413 65.376 176.532 64.0733 176.615 62.6513C176.697 61.2201 176.752 59.8715 176.761 58.6054C177.413 58.6146 177.972 58.6237 178.45 58.6237C179 58.6237 179.523 58.6146 180.028 58.6054L179.945 59.6696C180.119 59.477 180.275 59.321 180.413 59.2109C180.541 59.1008 180.706 58.9907 180.899 58.8806C181.092 58.7705 181.294 58.688 181.514 58.6146C181.734 58.5504 181.972 58.4953 182.229 58.4586C182.486 58.4219 182.761 58.4036 183.037 58.4036C183.431 58.4036 183.807 58.4403 184.183 58.5228C184.56 58.6054 184.862 58.7155 185.119 58.8623C185.367 59.0091 185.578 59.1926 185.743 59.4127C185.908 59.6329 186.018 59.8715 186.073 60.1283C186.128 60.3852 186.156 60.6421 186.156 60.9173C186.156 61.11 186.138 61.5412 186.092 62.1926L185.954 65.0182C185.927 65.5779 185.917 66.0916 185.917 66.5595C185.367 66.5504 184.853 66.5412 184.376 66.5412C183.734 66.5412 183.138 66.5504 182.615 66.5595C182.661 66.0916 182.716 65.3852 182.771 64.4494C182.826 63.5137 182.853 62.8623 182.853 62.477C182.853 61.8898 182.734 61.477 182.495 61.2476C182.257 61.0182 181.963 60.899 181.606 60.899C181.294 60.899 180.991 60.9999 180.716 61.1926C180.431 61.3944 180.22 61.6788 180.064 62.0549C179.908 62.4311 179.807 63.0549 179.743 63.9173C179.679 64.7797 179.642 65.6604 179.615 66.5504C179.073 66.5412 178.541 66.532 178.028 66.532C177.477 66.5412 176.89 66.5412 176.257 66.5595Z" fill="#2E3192"/>
<path d="M188.33 67.5229C189.028 67.7522 189.651 67.9082 190.183 67.9999C190.716 68.0917 191.183 68.1375 191.578 68.1375C191.872 68.1375 192.128 68.11 192.358 68.0458C192.596 67.9816 192.78 67.9082 192.917 67.8256C193.055 67.7339 193.183 67.6238 193.284 67.4862C193.385 67.3486 193.459 67.2018 193.514 67.0366C193.569 66.8715 193.606 66.6788 193.624 66.4587C193.642 66.2385 193.661 65.9357 193.679 65.5504C193.468 65.7339 193.284 65.8807 193.128 65.9908C192.972 66.1009 192.78 66.2018 192.55 66.3027C192.321 66.4036 192.073 66.4862 191.807 66.532C191.541 66.5871 191.257 66.6146 190.954 66.6146C190.266 66.6146 189.642 66.4586 189.092 66.1559C188.541 65.8531 188.128 65.422 187.853 64.8715C187.578 64.321 187.45 63.7247 187.45 63.0825C187.45 62.3302 187.596 61.6513 187.89 61.0366C188.183 60.4311 188.606 59.9174 189.147 59.4953C189.697 59.0733 190.294 58.7798 190.945 58.6238C191.596 58.4587 192.33 58.3853 193.156 58.3853C193.624 58.3853 194.165 58.4128 194.761 58.4678C195.358 58.5229 196.183 58.6421 197.229 58.8256L197.037 61.3944L196.872 64.2109C196.862 64.4128 196.853 64.5779 196.853 64.7064L196.789 67.2385C196.78 67.5596 196.734 67.8715 196.67 68.1559C196.606 68.422 196.505 68.6697 196.367 68.899C196.229 69.1284 196.055 69.3302 195.844 69.4953C195.615 69.688 195.358 69.8348 195.083 69.9449C194.789 70.055 194.459 70.1559 194.064 70.2293C193.642 70.3027 193.202 70.3394 192.734 70.3394C192.477 70.3394 192.156 70.3302 191.771 70.3027C191.395 70.2752 191 70.2476 190.606 70.1926C190.211 70.1467 189.862 70.1008 189.569 70.0458C189.275 69.9908 188.908 69.9174 188.468 69.8164L188.413 68.7889C188.404 68.6146 188.376 68.1834 188.33 67.5229ZM193.917 60.7797C193.578 60.7155 193.284 60.688 193.018 60.688C192.532 60.688 192.11 60.7798 191.752 60.9541C191.394 61.1376 191.119 61.4036 190.927 61.7614C190.734 62.1192 190.633 62.4862 190.633 62.8715C190.633 63.1559 190.688 63.4128 190.789 63.6513C190.89 63.8898 191.064 64.0825 191.303 64.2201C191.541 64.3577 191.798 64.4311 192.055 64.4311C192.44 64.4311 192.789 64.2935 193.092 64.0275C193.395 63.7522 193.606 63.3853 193.716 62.9174C193.835 62.4403 193.899 61.7339 193.917 60.7797Z" fill="#2E3192"/>
<path d="M352.752 47.3209C352.752 48.0365 352.459 48.6971 351.862 49.3026C351.266 49.9081 350.624 50.2109 349.927 50.2109C349.266 50.2109 348.688 50.009 348.183 49.6145C347.642 49.1925 347.367 48.6604 347.367 48.009C347.367 47.3301 347.615 46.7246 348.11 46.1925C348.376 45.9264 348.633 45.6604 348.89 45.4127L348.661 44.9173L349.55 43.5962C350.413 43.9815 351.128 44.4586 351.697 45.0457C352.394 45.7613 352.752 46.5228 352.752 47.3209ZM351.229 42.3026C351.037 42.4953 350.752 42.7888 350.376 43.1833L349.505 42.3852C349.468 42.4127 349.193 42.6787 348.67 43.1833C348.459 42.954 348.156 42.6787 347.78 42.3668C348.257 41.7797 348.541 41.4861 348.633 41.4861C348.67 41.4861 348.807 41.5962 349.028 41.8255C349.183 41.9631 349.321 42.1099 349.468 42.2476C349.642 42.1375 349.927 41.8806 350.303 41.4861C350.312 41.4953 350.624 41.7705 351.229 42.3026ZM350.89 46.9265C350.89 46.7338 350.78 46.532 350.56 46.3209C350.339 46.1099 350.128 45.9998 349.945 45.9998C349.807 45.9998 349.679 46.0549 349.55 46.165C349.431 46.2751 349.367 46.3943 349.367 46.5228C349.367 46.7154 349.495 46.8989 349.761 47.0641C350.028 47.2292 350.257 47.3118 350.468 47.3118C350.752 47.3118 350.89 47.1833 350.89 46.9265Z" fill="#ED1C24"/>
<path d="M361.385 50.211H359.376C359.367 51.1468 359.055 51.945 358.468 52.5963C357.844 53.2936 357.083 53.6422 356.174 53.6422C355.633 53.6422 355.046 53.4312 354.44 53.0092C353.826 52.5872 353.45 52.1284 353.312 51.6239L353.349 51.5505C353.44 51.5138 353.587 51.5046 353.789 51.5321H354.248C355.862 51.5321 357.092 51 357.908 49.9541L356.541 47.8532L357.963 46.3486C358.174 46.6147 358.413 46.9817 358.661 47.4496H361.395V50.211H361.385Z" fill="#ED1C24"/>
<path d="M364.532 47.4404H360.927V50.2019H364.532V47.4404Z" fill="#ED1C24"/>
<path d="M367.78 47.4404H364.174V50.2019H367.78V47.4404Z" fill="#ED1C24"/>
<path d="M371.028 47.4404H367.422V50.2019H371.028V47.4404Z" fill="#ED1C24"/>
<path d="M374.266 47.4404H370.661V50.2019H374.266V47.4404Z" fill="#ED1C24"/>
<path d="M379.56 50.2109H373.982V47.4402H378.275L378.294 47.1925C378.294 46.8623 378.183 46.5136 377.972 46.1467C378.385 45.6879 378.716 45.3485 378.936 45.1191C379.349 45.7063 379.56 46.4494 379.56 47.3577V50.2109ZM378.734 52.0641L377.725 53.1008L376.661 52.0549L375.633 53.1008L374.569 51.9724L375.596 50.9265L376.587 51.9448L377.633 50.954L378.734 52.0641Z" fill="#ED1C24"/>
<path d="M385.523 50.2109H380.321V43.4035L382.165 42.2476V47.4402H385.523V50.2109Z" fill="#ED1C24"/>
<path d="M388.688 47.4404H385.083V50.2019H388.688V47.4404Z" fill="#ED1C24"/>
<path d="M391.936 47.4404H388.33V50.2019H391.936V47.4404Z" fill="#ED1C24"/>
<path d="M395.184 47.4404H391.578V50.2019H395.184V47.4404Z" fill="#ED1C24"/>
<path d="M398.422 47.4404H394.817V50.2019H398.422V47.4404Z" fill="#ED1C24"/>
<path d="M405.862 50.211H402.239C402.073 50.055 401.835 49.8348 401.514 49.5413C401.321 49.688 401.055 49.9082 400.716 50.211H398.073V47.4403H400.119L400.156 47.3853C400.156 47.1926 400.064 47.055 399.872 46.9541C399.679 46.8624 399.495 46.8257 399.321 46.8715C399.349 46.2568 399.578 45.7614 400.009 45.3669C400.44 44.9724 400.954 44.7798 401.569 44.7798C402.615 44.7798 403.367 45.3119 403.807 46.3578L403.128 47.4403H405.862V50.211ZM402.413 46.3761H401.009C401.174 46.5413 401.422 46.7798 401.752 47.1009L402.413 46.3761Z" fill="#ED1C24"/>
<path d="M409.009 47.4404H405.404V50.2019H409.009V47.4404Z" fill="#ED1C24"/>
<path d="M412.257 47.4404H408.651V50.2019H412.257V47.4404Z" fill="#ED1C24"/>
<path d="M415.505 47.4404H411.899V50.2019H415.505V47.4404Z" fill="#ED1C24"/>
<path d="M418.752 47.4404H415.147V50.2019H418.752V47.4404Z" fill="#ED1C24"/>
<path d="M426.248 50.2109H423.193C423.037 50.2109 422.78 50.4128 422.404 50.8073C422.028 51.2109 421.734 51.4128 421.523 51.4128C421.193 51.4128 420.789 51.2201 420.303 50.844C419.817 50.4586 419.339 50.2568 418.872 50.2201H418.477V47.4403H418.725C419.248 47.4495 419.789 47.11 420.358 46.4219C420.927 45.7339 421.404 45.3853 421.78 45.3853C422.037 45.3853 422.45 45.6697 423.028 46.2201C423.422 46.6238 423.807 47.0366 424.183 47.4403H426.248V50.2109ZM422.413 47.7889C422.413 47.6238 422.349 47.4495 422.22 47.266C422.092 47.0825 421.954 46.9908 421.798 46.9908C421.624 46.9908 421.413 47.0917 421.174 47.2935C421.138 47.3302 421.101 47.3944 421.083 47.4862C421.459 47.688 421.872 47.8807 422.321 48.055C422.376 47.9541 422.413 47.8623 422.413 47.7889Z" fill="#ED1C24"/>
<path d="M429.321 47.4404H425.716V50.2019H429.321V47.4404Z" fill="#ED1C24"/>
<path d="M432.56 47.4404H428.954V50.2019H432.56V47.4404Z" fill="#ED1C24"/>
<path d="M435.807 47.4404H432.202V50.2019H435.807V47.4404Z" fill="#ED1C24"/>
<path d="M439.055 47.4404H435.45V50.2019H439.055V47.4404Z" fill="#ED1C24"/>
<path d="M444.229 50.2109H438.688V47.4402H440.202V43.2109L442.174 42.2935L442.587 44.4861C442.395 44.7705 442.156 45.0458 441.862 45.321V47.4402H444.22V50.2109H444.229Z" fill="#ED1C24"/>
<path d="M447.651 43.4861C447.661 43.5504 447.56 43.7063 447.349 43.9449C447.211 44.0825 447.073 44.2293 446.927 44.3669V50.2109H443.78V47.4494H445.239V42.2109C446.514 41.5962 447.183 41.3118 447.229 41.3302L447.651 43.4861Z" fill="#ED1C24"/>
<path d="M458.505 48.7063C458.505 50.0733 458.229 51.2109 457.67 52.1008C457.009 53.1651 456.028 53.6972 454.725 53.6972C453.817 53.6972 453.018 53.4219 452.33 52.8807C451.606 52.2935 451.248 51.5596 451.248 50.6697C451.248 50.2018 451.404 49.6605 451.716 49.0458C452.028 48.4403 452.367 47.9724 452.752 47.6513H452.862C452.899 47.7155 452.917 47.9265 452.917 48.2843C452.917 48.844 453.073 49.3027 453.376 49.6788C453.679 50.0458 454.11 50.2293 454.67 50.2293C455.193 50.2293 455.651 50.0366 456.064 49.6513C456.477 49.266 456.679 48.8073 456.679 48.266C456.679 47.9999 456.569 47.6146 456.339 47.1008C456.972 46.5504 457.468 46.1559 457.817 45.9174C457.954 46.3761 458.101 46.8348 458.257 47.2935C458.422 47.8348 458.505 48.3119 458.505 48.7063ZM455.982 45.5963C455.872 45.7522 455.56 46.0825 455.055 46.5871L453.972 45.633C454.339 45.2476 454.688 44.9174 455.018 44.6238L455.982 45.5963Z" fill="#ED1C24"/>
<path d="M466.716 50.211H464.725C464.615 50.477 464.523 50.8073 464.459 51.1926C464.349 51.8257 463.982 52.3853 463.358 52.8807C462.734 53.3761 462.101 53.6238 461.44 53.6238C460.495 53.6238 459.661 53.1651 458.936 52.2569V52.0458C459.972 52.0458 460.67 52.0092 461.046 51.9358C461.771 51.7798 462.358 51.4312 462.826 50.8715C462.367 50.8165 461.908 50.7706 461.44 50.7156C460.917 50.6422 460.541 50.4954 460.303 50.2752C460 49.9816 459.844 49.5046 459.844 48.844C459.844 48.0917 460.083 47.3119 460.569 46.5046C461.11 45.5871 461.725 45.1284 462.413 45.1284C462.826 45.1284 463.174 45.2752 463.44 45.5688C463.587 45.7431 463.78 46.0642 464 46.5229C464.22 46.9816 464.413 47.2936 464.578 47.4587H466.725L466.716 50.211ZM463.092 47.7706C463.092 47.6147 462.973 47.4495 462.743 47.2569C462.505 47.0642 462.312 46.9725 462.165 46.9725C461.973 46.9725 461.881 47.0642 461.881 47.2385C461.881 47.4037 461.991 47.578 462.211 47.7614C462.431 47.9449 462.624 48.0367 462.789 48.0367C462.991 48.0367 463.092 47.9449 463.092 47.7706Z" fill="#ED1C24"/>
<path d="M469.89 47.4404H466.284V50.2019H469.89V47.4404Z" fill="#ED1C24"/>
<path d="M473.128 47.4404H469.523V50.2019H473.128V47.4404Z" fill="#ED1C24"/>
<path d="M476.376 47.4404H472.771V50.2019H476.376V47.4404Z" fill="#ED1C24"/>
<path d="M479.624 47.4404H476.018V50.2019H479.624V47.4404Z" fill="#ED1C24"/>
<path d="M482.862 47.4404H479.257V50.2019H482.862V47.4404Z" fill="#ED1C24"/>
<path d="M486.11 47.4404H482.505V50.2019H486.11V47.4404Z" fill="#ED1C24"/>
<path d="M489.358 47.4404H485.752V50.2019H489.358V47.4404Z" fill="#ED1C24"/>
<path d="M492.596 47.4404H488.991V50.2019H492.596V47.4404Z" fill="#ED1C24"/>
<path d="M495.844 47.4404H492.239V50.2019H495.844V47.4404Z" fill="#ED1C24"/>
<path d="M499.092 47.4404H495.486V50.2019H499.092V47.4404Z" fill="#ED1C24"/>
<path d="M502.33 47.4404H498.725V50.2019H502.33V47.4404Z" fill="#ED1C24"/>
<path d="M505.578 47.4404H501.973V50.2019H505.578V47.4404Z" fill="#ED1C24"/>
<path d="M508.826 47.4404H505.22V50.2019H508.826V47.4404Z" fill="#ED1C24"/>
<path d="M514.294 47.422L513.761 50.211H508.486V47.4496H511.45C511.45 47.4129 510.872 47.0092 509.706 46.2477V43.7156C510.11 43.3211 510.679 42.9817 511.413 42.7064C512.147 42.422 512.807 42.2844 513.385 42.2844C513.55 42.2844 513.706 42.3119 513.862 42.3762C514.064 42.4679 514.147 42.5872 514.11 42.7431L513.771 44.1193C513.395 43.945 513.138 43.8532 513.009 43.8532C512.642 43.8532 512.239 43.9725 511.807 44.2019C511.367 44.4404 511.055 44.7064 510.853 45.0092L514.294 47.422Z" fill="#ED1C24"/>
<path d="M517.321 41.0459C516.881 41.2202 516.431 41.312 515.991 41.312C515.624 41.312 515.165 41.2202 514.624 41.0276V40.2844C514.917 40.4404 515.101 40.5138 515.174 40.5138L515.532 40.4771C515.339 40.312 515.248 40.0643 515.248 39.734C515.248 39.0734 515.495 38.7432 516 38.7432C516.229 38.7432 516.459 38.8074 516.679 38.945C516.899 39.0826 517.018 39.2478 517.018 39.4404C517.018 39.5872 516.936 39.6606 516.771 39.6606H516.605H516.44C516.211 39.6606 516.101 39.789 516.101 40.0459C516.101 40.2478 516.257 40.3578 516.578 40.367C516.954 40.3945 517.156 40.4221 517.183 40.4404C517.294 40.5505 517.339 40.7523 517.321 41.0459Z" fill="#ED1C24"/>
<path d="M517.55 43.5413C517.376 43.7799 517.128 44.0643 516.826 44.3854V49.101L515.156 50.2111V42.2661L517.11 41.3303L517.55 43.5413Z" fill="#ED1C24"/>
<path d="M353.422 63.5688V66.3302H350.596C350.303 66.3302 349.972 66.1192 349.606 65.6972C349.248 65.3119 349.046 64.9541 349 64.6421L347.972 65.7064L345.945 64.6972C345.954 64.6605 346.018 64.4311 346.119 64.0091C346.183 63.7155 346.284 63.4954 346.422 63.3394C346.624 63.0825 346.991 62.7706 347.523 62.4036C348.128 61.9816 348.532 61.688 348.716 61.5045V61.1192L349.761 60.6605V61.2293C349.761 62.11 349.972 62.7247 350.404 63.0733C350.743 63.3577 351.284 63.5137 352.037 63.5504H353.422V63.5688ZM351.459 58.9724L350.376 60.0733L349.385 59.055L348.358 60.055L347.229 58.9908L348.266 57.9082L349.33 58.9357L350.358 57.9082L351.459 58.9724ZM348.606 63.3394C348.606 63.1376 348.514 63.0366 348.321 63.0366C348.211 63.0366 348.101 63.0825 348 63.1834C347.899 63.2752 347.844 63.3853 347.844 63.4954C347.844 63.5504 347.899 63.6238 348.028 63.7247C348.147 63.8256 348.239 63.8807 348.303 63.8807C348.376 63.8807 348.45 63.8073 348.514 63.6697C348.569 63.5321 348.606 63.422 348.606 63.3394Z" fill="#ED1C24"/>
<path d="M356.615 63.5688H353.009V66.3303H356.615V63.5688Z" fill="#ED1C24"/>
<path d="M359.853 63.5688H356.248V66.3303H359.853V63.5688Z" fill="#ED1C24"/>
<path d="M365.835 66.3303H359.532V63.5689H360.862C360.734 63.1744 360.67 62.8991 360.67 62.7523C360.67 62.2661 360.835 61.8624 361.174 61.523C361.505 61.1835 361.917 61.0184 362.395 61.0184C362.89 61.0184 363.266 61.3395 363.532 61.9817C363.734 62.4679 363.826 63 363.817 63.578H365.826V66.3303H365.835ZM363.56 59.3395L362.67 60.2936L361.761 59.3762L360.89 60.2569L359.963 59.2845L360.817 58.3303C361.046 58.523 361.358 58.8441 361.761 59.3028L362.596 58.3303C362.844 58.5689 363.165 58.8991 363.56 59.3395ZM362.817 63.3028C362.817 63.1377 362.752 62.945 362.615 62.7248C362.486 62.5046 362.339 62.3945 362.193 62.3945C361.991 62.3945 361.89 62.5046 361.89 62.7156C361.89 62.8716 361.954 63.0276 362.083 63.1927C362.211 63.3578 362.339 63.4679 362.477 63.5138L362.587 63.5689C362.743 63.5689 362.817 63.4863 362.817 63.3028Z" fill="#ED1C24"/>
<path d="M369 63.5688H365.395V66.3303H369V63.5688Z" fill="#ED1C24"/>
<path d="M376.119 66.3303H372.606C372.495 66.3303 372.385 66.1927 372.294 65.9175C372.202 65.6422 372.073 65.5046 371.927 65.5046C371.798 65.5046 371.67 65.6422 371.532 65.9175C371.395 66.1927 371.284 66.3303 371.211 66.3303H368.688V63.5688H371.367C371.413 63.5138 371.514 63.3395 371.651 63.0367C371.761 62.8074 371.881 62.6973 371.991 62.6973C372.156 62.6973 372.266 62.8349 372.33 63.1285C372.395 63.4129 372.477 63.5597 372.578 63.578H376.128V66.3303H376.119ZM374.028 67.9725C374 68 373.67 68.3762 373.028 69.0918L371.963 68.0642L370.899 69.0918L369.826 68.0184L370.862 66.9633L371.917 67.9541L372.936 66.9725L374.028 67.9725Z" fill="#ED1C24"/>
<path d="M379.193 63.5688H375.587V66.3303H379.193V63.5688Z" fill="#ED1C24"/>
<path d="M382.44 63.5688H378.835V66.3303H382.44V63.5688Z" fill="#ED1C24"/>
<path d="M386.312 63.4128L385.404 66.3394H382.101V63.5779H383.358C383.202 63.2476 383.128 62.9724 383.128 62.743C383.128 62.2568 383.294 61.8531 383.633 61.5137C383.972 61.1742 384.367 61.0091 384.835 61.0091C385.248 61.0091 385.615 61.2843 385.936 61.8348C386.211 62.3027 386.358 62.7522 386.358 63.1742C386.349 63.266 386.339 63.3485 386.312 63.4128ZM386.349 59.4586L385.468 60.3852L384.569 59.4586C384.468 59.5229 384.174 59.8073 383.688 60.3027L382.78 59.3485C383.312 58.7522 383.606 58.4495 383.661 58.4495C383.706 58.4495 384 58.7522 384.523 59.3669L385.422 58.4495C385.835 58.8715 386.147 59.2018 386.349 59.4586ZM385.284 63.2568C385.284 63.1008 385.211 62.9082 385.073 62.6972C384.936 62.4862 384.798 62.3761 384.661 62.3761C384.587 62.3761 384.486 62.4403 384.376 62.5504V62.6054C384.376 62.7614 384.395 62.8898 384.431 62.9816C384.468 63.0733 384.56 63.1926 384.706 63.3485C384.853 63.4953 384.972 63.5779 385.055 63.5779C385.211 63.5687 385.284 63.4678 385.284 63.2568Z" fill="#ED1C24"/>
<path d="M394.468 66.3303C392.789 66.3303 391.899 66.3028 391.816 66.2386C391.128 66.4404 390.541 66.5413 390.055 66.5413C389.257 66.5413 388.679 66.4863 388.312 66.3946C387.587 66.1927 387.229 65.8074 387.229 65.2478V63.5689C387.44 63.6423 387.798 63.679 388.294 63.679H389.147C389.615 63.679 390.018 63.5872 390.339 63.3946C390.303 63.1652 390.119 62.8716 389.789 62.5046C389.459 62.1468 389.183 61.9267 388.972 61.8624C389.312 61.1927 389.716 60.8533 390.165 60.8533C390.523 60.8533 390.936 61.3028 391.422 62.2019C391.899 63.101 392.183 63.5505 392.257 63.5505H394.477L394.468 66.3303Z" fill="#ED1C24"/>
<path d="M397.615 63.5688H394.009V66.3303H397.615V63.5688Z" fill="#ED1C24"/>
<path d="M400.862 63.5688H397.257V66.3303H400.862V63.5688Z" fill="#ED1C24"/>
<path d="M404.395 59.6145C404.404 59.6788 404.303 59.8347 404.092 60.0733C403.954 60.2109 403.817 60.3577 403.679 60.4953V66.3393H400.532V63.5778H401.991V58.3393C403.266 57.7338 403.936 57.4402 403.982 57.4586L404.395 59.6145Z" fill="#ED1C24"/>
<path d="M407.505 59.6697C407.33 59.9083 407.092 60.1927 406.78 60.5138V65.2294L405.11 66.3395V58.3945L407.064 57.4587L407.505 59.6697Z" fill="#ED1C24"/>
<path d="M416.578 63.4496C416.578 64.1652 416.284 64.8258 415.688 65.4313C415.092 66.0368 414.45 66.3395 413.752 66.3395C413.092 66.3395 412.514 66.1377 412.009 65.7432C411.468 65.3212 411.193 64.7891 411.193 64.1377C411.193 63.4588 411.44 62.8625 411.936 62.3212C412.202 62.0551 412.459 61.7891 412.716 61.5414L412.486 61.0459L413.376 59.7248C414.239 60.1102 414.954 60.5872 415.523 61.1744C416.22 61.89 416.578 62.6514 416.578 63.4496ZM415.055 58.4313C414.862 58.6239 414.578 58.9175 414.202 59.312L413.33 58.5138C413.294 58.5414 413.018 58.8074 412.495 59.312C412.284 59.0826 411.982 58.8074 411.606 58.4955C412.083 57.9083 412.367 57.6147 412.459 57.6147C412.495 57.6147 412.633 57.7248 412.853 57.9542C413.009 58.0918 413.147 58.2386 413.294 58.3762C413.468 58.2661 413.752 58.0092 414.128 57.6147C414.138 57.6239 414.45 57.89 415.055 58.4313ZM414.716 63.0551C414.716 62.8625 414.606 62.6606 414.385 62.4496C414.165 62.2386 413.954 62.1285 413.771 62.1285C413.633 62.1285 413.505 62.1836 413.376 62.2936C413.257 62.4037 413.193 62.523 413.193 62.6514C413.193 62.8441 413.321 63.0276 413.587 63.1927C413.853 63.3579 414.083 63.4404 414.294 63.4404C414.578 63.4404 414.716 63.312 414.716 63.0551Z" fill="#ED1C24"/>
<path d="M425.266 66.3301H423.183C423.156 67.2934 422.872 68.0916 422.33 68.7338C421.734 69.4402 420.972 69.798 420.037 69.798C418.872 69.798 417.89 69.1558 417.073 67.8714V67.7246C417.202 67.6696 417.358 67.6604 417.55 67.6696H418.046C419.651 67.6696 420.872 67.1375 421.688 66.0641L420.303 63.9265L421.798 62.3668C422.064 62.7888 422.294 63.1833 422.505 63.5687H425.275L425.266 66.3301ZM422.844 60.6971L421.807 61.7613L420.661 60.7246L421.697 59.6604L422.844 60.6971Z" fill="#ED1C24"/>
<path d="M428.413 63.5688H424.807V66.3303H428.413V63.5688Z" fill="#ED1C24"/>
<path d="M431.661 63.5688H428.055V66.3303H431.661V63.5688Z" fill="#ED1C24"/>
<path d="M440.881 66.3303H435.358C435.294 66.3303 435.119 66.2477 434.835 66.0826C434.55 65.9175 434.395 65.8074 434.349 65.734C433.972 66.1285 433.523 66.3211 433 66.3211H431.275V63.5597H433.037C433.073 63.4496 433.147 63.0734 433.248 62.4587C433.312 62.0918 433.486 61.7431 433.761 61.4129C433.697 61.211 433.67 61.0092 433.67 60.8074C433.67 60.5413 433.826 60.3119 434.128 60.1193C434.385 59.9541 434.651 59.8716 434.945 59.8716C435.624 59.8716 436.22 60.0918 436.725 60.523C437.119 60.8532 437.495 61.3486 437.862 62.0092C438.128 62.5321 438.395 63.0551 438.661 63.5688H440.881V66.3303ZM435.156 62.4496C435.156 62.2294 435.064 62.1285 434.89 62.1285C434.734 62.1285 434.587 62.2386 434.422 62.4587C434.266 62.6789 434.184 62.8716 434.184 63.0184C434.184 63.2202 434.275 63.3211 434.468 63.3211C434.615 63.3211 434.771 63.211 434.927 63C435.073 62.7798 435.156 62.5964 435.156 62.4496ZM437.092 63.5413C437.092 63.4037 437.018 63.2294 436.872 63.0184C436.725 62.8165 436.587 62.7064 436.459 62.7064H436.266L435.826 63.7523C435.853 63.8257 435.936 63.9083 436.083 63.9817C436.229 64.0551 436.339 64.1009 436.413 64.1009C436.578 64.1009 436.734 64.0459 436.872 63.945C437.018 63.8441 437.092 63.7156 437.092 63.5413Z" fill="#ED1C24"/>
<path d="M443.991 63.5688H440.385V66.3303H443.991V63.5688Z" fill="#ED1C24"/>
<path d="M447.239 63.5688H443.633V66.3303H447.239V63.5688Z" fill="#ED1C24"/>
<path d="M455 63.633L453.706 66.3394H446.872V63.633H451.541C451.413 63.3761 451.156 63.1284 450.752 62.9082C450.358 62.6788 450.018 62.5688 449.734 62.5688C449.569 62.5688 449.385 62.6238 449.165 62.7247C448.853 62.8715 448.67 62.9541 448.615 62.9632C448.605 62.9357 448.587 62.9082 448.578 62.8715C448.578 62.2843 448.743 61.8165 449.073 61.4495C449.404 61.0917 449.853 60.9082 450.422 60.9082C450.862 60.9082 451.321 61.1467 451.789 61.6146C452.183 62.0458 452.578 62.4862 452.982 62.9174C453.486 63.3944 454.009 63.6238 454.56 63.6238H455V63.633ZM451.596 68.3394L450.578 69.422L449.486 68.3669L450.477 67.2843L451.596 68.3394Z" fill="#ED1C24"/>
<path d="M457.963 57.1743C457.523 57.3486 457.083 57.4404 456.633 57.4404C456.266 57.4404 455.807 57.3486 455.266 57.156V56.4129C455.56 56.5688 455.743 56.6422 455.817 56.6422L456.174 56.6055C455.982 56.4404 455.89 56.1927 455.89 55.8624C455.89 55.2019 456.138 54.8716 456.642 54.8716C456.872 54.8716 457.101 54.9358 457.321 55.0734C457.541 55.211 457.661 55.3762 457.661 55.5688C457.661 55.7156 457.578 55.789 457.413 55.789H457.257H457.092C456.862 55.789 456.752 55.9175 456.752 56.1743C456.752 56.3762 456.908 56.4863 457.229 56.4954C457.606 56.523 457.817 56.5505 457.835 56.5688C457.927 56.6789 457.972 56.8808 457.963 57.1743Z" fill="#ED1C24"/>
<path d="M461 60.0183L460.642 60.2477C460.44 60.6789 460.183 61.3394 459.862 62.2202L460.844 63.578V66.3394H455.945V63.578C456.376 63.5505 456.807 63.4037 457.248 63.1193C457.688 62.844 458 62.5138 458.184 62.1284C457.587 61.2936 457.009 60.8716 456.44 60.8716C456.229 60.8716 455.844 60.5229 455.303 59.8257L456.229 58.4128L458.697 60.6789C458.798 60.6055 458.872 60.4404 458.908 60.2018C458.917 60.0275 458.917 59.789 458.908 59.4954L458.872 58.9266L460.468 58.4128L461 60.0183ZM459.367 63.2569C459.367 62.9633 459.211 62.8073 458.908 62.8073C458.853 62.8073 458.826 62.8165 458.817 62.8257C458.578 62.945 458.459 63.1101 458.459 63.3303C458.459 63.4495 458.477 63.5229 458.514 63.5596C458.615 63.6789 458.743 63.7339 458.89 63.7339C459 63.7339 459.11 63.6789 459.211 63.578C459.312 63.4862 459.367 63.3761 459.367 63.2569Z" fill="#ED1C24"/>
<path d="M464.11 59.6697C463.936 59.9083 463.688 60.1927 463.385 60.5138V65.2294L461.716 66.3395V58.3945L463.67 57.4587L464.11 59.6697Z" fill="#ED1C24"/>
<path d="M473.184 63.4496C473.184 64.1652 472.89 64.8258 472.294 65.4313C471.697 66.0368 471.055 66.3395 470.358 66.3395C469.697 66.3395 469.119 66.1377 468.615 65.7432C468.073 65.3212 467.798 64.7891 467.798 64.1377C467.798 63.4588 468.046 62.8625 468.541 62.3212C468.807 62.0551 469.064 61.7891 469.321 61.5414L469.092 61.0459L469.982 59.7248C470.844 60.1102 471.56 60.5872 472.128 61.1744C472.826 61.89 473.184 62.6514 473.184 63.4496ZM471.661 58.4313C471.468 58.6239 471.183 58.9175 470.807 59.312L469.936 58.5138C469.899 58.5414 469.624 58.8074 469.101 59.312C468.881 59.0826 468.587 58.8074 468.211 58.4955C468.697 57.9083 468.972 57.6147 469.064 57.6147C469.101 57.6147 469.239 57.7248 469.459 57.9542C469.605 58.0918 469.752 58.2386 469.899 58.3762C470.073 58.2661 470.358 58.0092 470.734 57.6147C470.743 57.6239 471.055 57.89 471.661 58.4313ZM471.321 63.0551C471.321 62.8625 471.211 62.6606 470.991 62.4496C470.771 62.2386 470.56 62.1285 470.376 62.1285C470.239 62.1285 470.11 62.1836 469.991 62.2936C469.872 62.4037 469.807 62.523 469.807 62.6514C469.807 62.8441 469.936 63.0276 470.202 63.1927C470.468 63.3579 470.706 63.4404 470.908 63.4404C471.183 63.4404 471.321 63.312 471.321 63.0551Z" fill="#ED1C24"/>
<path d="M479.67 65.9357C479.67 66.9815 479.413 67.8623 478.908 68.587C478.339 69.4036 477.55 69.8072 476.55 69.8072C476.028 69.8072 475.422 69.5687 474.734 69.1008C473.972 68.6146 473.606 68.1375 473.633 67.6696H473.899C474.862 67.6696 475.642 67.5779 476.229 67.4036C477 67.1742 477.651 66.7522 478.183 66.1467L476.853 64.0091L478.312 62.4678C479.22 63.3669 479.67 64.5228 479.67 65.9357Z" fill="#ED1C24"/>
<path d="M485.725 66.3302H480.523V59.5321L482.367 58.3669V63.5688H485.725V66.3302Z" fill="#ED1C24"/>
<path d="M488.89 63.5688H485.284V66.3303H488.89V63.5688Z" fill="#ED1C24"/>
<path d="M492.138 63.5688H488.532V66.3303H492.138V63.5688Z" fill="#ED1C24"/>
<path d="M500.716 66.3303H491.798V63.5688H496.009C495.679 63.0367 495.239 62.7706 494.679 62.7706C494.523 62.7706 494.321 62.8257 494.055 62.9266C493.789 63.0275 493.596 63.0826 493.468 63.0826V62.7982C493.468 62.2936 493.642 61.8715 493.982 61.5504C494.321 61.2293 494.743 61.0642 495.257 61.0642C495.798 61.0642 496.404 61.4771 497.055 62.3119C497.716 63.1468 498.266 63.5688 498.706 63.578H500.716V66.3303ZM496.541 68.3486L495.532 69.3578L494.45 68.3119C494.624 68.0826 494.945 67.7339 495.413 67.266L496.541 68.3486Z" fill="#ED1C24"/>
<path d="M503.936 63.5688H500.33V66.3303H503.936V63.5688Z" fill="#ED1C24"/>
<path d="M507.184 63.5688H503.578V66.3303H507.184V63.5688Z" fill="#ED1C24"/>
<path d="M512.459 66.3394H506.881V63.5779H511.165L511.183 63.3118C511.183 62.9907 511.092 62.6421 510.899 62.2476C511.321 61.7889 511.642 61.4495 511.862 61.2201C512.257 61.899 512.45 62.4036 512.45 62.7339V66.3394H512.459ZM511.624 59.6696L510.596 60.7063L509.523 59.6788L508.477 60.688L507.404 59.5962L508.422 58.5137L509.486 59.5595L510.514 58.6054L511.624 59.6696Z" fill="#ED1C24"/>
<path d="M518.835 65.5505C518.835 66.6331 518.56 67.578 518 68.3854C517.367 69.3028 516.532 69.7615 515.495 69.7615C515.055 69.7615 514.578 69.6147 514.073 69.312C513.569 69.0092 513.22 68.6698 513.028 68.2936L513.138 68.156L513.688 68.1927C515.183 68.1927 516.248 67.7982 516.89 67.0092C516.45 66.9542 516.009 66.9083 515.578 66.8533C515.073 66.7891 514.697 66.6514 514.459 66.4313C514.156 66.1652 514 65.7248 514 65.1193C514 64.3303 514.22 63.523 514.661 62.6973C515.183 61.7432 515.807 61.2661 516.541 61.2661C517.22 61.2661 517.798 61.8349 518.266 62.9634C518.651 63.8991 518.835 64.7524 518.835 65.5505ZM517.239 64.0092C517.239 63.8441 517.119 63.6698 516.89 63.4771C516.651 63.2845 516.459 63.1927 516.294 63.1927C516.239 63.1927 516.183 63.2294 516.101 63.2936C516.028 63.367 515.991 63.4221 515.991 63.4771C515.991 63.6423 516.101 63.8166 516.321 63.9909C516.541 64.1652 516.734 64.2569 516.899 64.2569C517.128 64.2569 517.239 64.1744 517.239 64.0092Z" fill="#ED1C24"/>
</svg>
