<svg version="1.1" id="Layer_1" xmlns="http://www.w3.org/2000/svg" xmlns:xlink="http://www.w3.org/1999/xlink" x="0px" y="0px"
	 width="100%" viewBox="0 0 464 504" enable-background="new 0 0 464 504" xml:space="preserve">
<path fill="#FEFEFE" opacity="1.000000" stroke="none" 
	d="
M1.000000,148.000000 
	C1.000000,98.679268 1.000000,49.858528 1.000000,1.018896 
	C155.614166,1.018896 310.228333,1.018896 464.921265,1.018896 
	C464.921265,168.904129 464.921265,336.808319 464.921265,504.856262 
	C310.333435,504.856262 155.666733,504.856262 1.000000,504.856262 
	C1.000000,386.104889 1.000000,267.302429 1.000000,148.000000 
M294.802979,50.720360 
	C294.764282,50.841633 294.725586,50.962906 294.686890,51.084187 
	C294.813782,51.023029 294.940643,50.961872 294.639099,51.623028 
	C295.710724,54.729763 297.157593,57.764568 297.769958,60.959335 
	C298.801605,66.341988 302.517853,66.794258 307.520111,66.990509 
	C304.181580,60.455029 304.867310,51.757305 294.802979,50.720360 
M203.878281,365.538544 
	C210.407608,379.746063 216.936920,393.953552 223.466248,408.161072 
	C223.774536,408.085480 224.082825,408.009918 224.391098,407.934326 
	C221.891296,393.134186 219.391495,378.334045 217.383636,363.118469 
	C224.428116,359.261108 228.454407,353.481873 228.969589,345.072021 
	C215.530670,345.072021 202.337708,345.072021 188.612534,345.072021 
	C188.986755,347.256042 189.120605,349.202301 189.667709,351.024475 
	C191.808258,358.153717 197.278961,361.965851 203.878281,365.538544 
M73.195473,306.745361 
	C68.436081,307.211761 63.625385,308.347290 58.929375,307.987122 
	C51.950474,307.451996 47.998455,300.979645 50.895889,294.556427 
	C52.402679,291.216064 55.540752,287.763947 58.816120,286.234894 
	C67.169380,282.335419 76.013863,279.488220 85.095215,276.056152 
	C84.036690,295.059753 82.995628,313.749817 81.948692,332.545288 
	C96.686684,332.545288 110.919334,332.545288 125.424805,332.545288 
	C125.576111,330.658783 125.765320,329.035278 125.827858,327.406891 
	C126.498863,309.935516 127.066139,292.459656 127.834167,274.992645 
	C128.397354,262.184448 129.523071,249.395279 129.845856,236.583694 
	C130.267441,219.851379 122.861778,209.322235 107.756371,204.358902 
	C104.453819,203.273758 101.018768,202.440292 97.579323,201.947830 
	C74.551155,198.650833 52.164852,202.831497 29.909092,208.107971 
	C28.819218,208.366364 27.382097,209.852859 27.224730,210.930710 
	C25.816858,220.573761 24.660212,230.253479 23.399117,240.162292 
	C29.601782,237.932251 35.471977,235.647842 41.454159,233.708954 
	C52.270542,230.203232 63.277264,227.596298 74.775375,228.933929 
	C80.288780,229.575333 83.625854,232.739273 84.086685,237.120941 
	C84.623085,242.221130 82.410004,245.742401 77.188766,247.966522 
	C75.971329,248.485123 74.690598,248.877594 73.410728,249.223648 
	C62.827965,252.085022 52.178646,254.718796 41.667084,257.820099 
	C29.891872,261.294220 19.875444,267.290070 12.923309,277.983032 
	C-0.148298,298.088287 9.796165,329.439545 33.558746,334.419983 
	C44.020107,336.612610 54.387505,336.372772 64.807213,334.738495 
	C65.883278,334.569733 67.423164,333.478455 67.673500,332.531281 
	C69.914429,324.052124 71.914276,315.509308 74.414215,307.017151 
	C74.364746,306.804901 74.315269,306.592651 74.265800,306.380402 
	C74.184509,306.593445 74.103210,306.806519 73.195473,306.745361 
M14.660606,340.487396 
	C12.775661,340.487396 10.890716,340.487396 8.686711,340.487396 
	C8.987633,342.146057 9.079377,342.959015 9.285246,343.742035 
	C16.403984,370.817078 27.393389,396.162750 43.884144,418.869812 
	C80.745300,469.626038 130.524017,497.978302 193.084717,502.724396 
	C233.657791,505.802460 272.148804,496.816193 308.291779,478.414001 
	C366.583832,448.734650 407.929443,402.907501 435.004974,343.756989 
	C435.438141,342.810699 435.625214,341.751801 436.004578,340.487396 
	C424.841980,340.487396 414.173615,340.722229 403.525085,340.365784 
	C399.555939,340.232910 397.633820,341.679108 395.862579,344.953827 
	C379.005554,376.119110 356.704681,402.767303 328.365112,424.060181 
	C284.288300,457.177155 235.063965,474.182953 179.546127,468.002747 
	C124.735397,461.901184 81.636559,435.261292 49.827419,390.301361 
	C39.014202,375.017670 31.053854,358.249695 24.790710,340.830170 
	C24.204802,340.682129 23.891996,340.537537 23.577600,340.533997 
	C20.911970,340.503937 18.246052,340.499542 14.660606,340.487396 
M59.205448,121.766876 
	C88.316994,80.758728 125.698448,50.234058 173.429016,33.571796 
	C227.568512,14.672230 280.589386,17.190012 330.855804,46.018017 
	C379.149414,73.714622 407.658691,116.551651 420.835114,169.926697 
	C424.318573,184.037521 425.806641,198.640930 428.238434,213.182434 
	C438.317902,213.182434 449.042053,213.182434 459.876343,213.182434 
	C459.876343,211.854370 459.941925,210.857468 459.866882,209.871277 
	C457.012177,172.359726 447.513184,136.708496 427.855865,104.457924 
	C388.528503,39.935829 330.901398,5.997315 255.157211,4.653652 
	C214.675674,3.935530 176.825302,15.211016 141.958847,35.504322 
	C73.611290,75.284615 31.163868,134.849075 10.220171,210.457764 
	C9.980644,211.322464 10.190338,212.311600 10.190338,213.518723 
	C11.713140,213.518723 13.033538,213.552582 14.351430,213.509598 
	C15.799987,213.462357 17.246237,213.344391 18.750103,213.253815 
	C26.293478,180.193146 39.674339,150.004807 59.205448,121.766876 
M355.000458,181.941132 
	C354.482727,189.838409 353.964996,197.735672 353.426147,205.955093 
	C346.879059,205.955093 341.104401,205.955093 334.554871,205.955093 
	C334.554871,217.572495 334.554871,228.807510 334.554871,240.591309 
	C339.636505,240.591309 345.055756,240.591309 350.887421,240.591309 
	C350.424194,249.076080 349.908752,257.008057 349.575562,264.947693 
	C348.968262,279.420258 347.795807,293.911957 348.109161,308.368591 
	C348.439331,323.600464 357.809204,332.796021 372.759766,335.076294 
	C383.802399,336.760498 394.680023,335.943878 405.527069,333.798676 
	C414.051270,332.112823 414.139130,332.073456 415.587616,323.526245 
	C417.130157,314.423920 418.459869,305.285553 419.882507,296.163116 
	C415.031799,297.095886 410.668549,298.291840 406.232086,298.708801 
	C398.549927,299.430847 393.396423,295.810730 393.233154,288.276611 
	C392.891724,272.520416 393.511200,256.743378 393.743195,240.469009 
	C402.862915,240.469009 411.126617,240.469009 420.017822,240.469009 
	C420.017822,228.729248 420.017822,217.507751 420.017822,205.689270 
	C411.913055,205.689270 403.681030,205.689270 395.658997,205.689270 
	C395.658997,193.719269 395.658997,182.334427 395.658997,170.552460 
	C390.941620,171.764236 386.451691,172.904190 381.968964,174.071930 
	C373.029816,176.400620 364.094666,178.744568 355.000458,181.941132 
M174.049423,328.549866 
	C178.653870,330.395752 183.123779,332.767639 187.888626,333.986420 
	C200.867874,337.306244 213.958694,336.300354 227.027527,334.098663 
	C239.603424,331.980072 239.700836,332.068512 241.650635,319.852814 
	C243.056686,311.043762 244.199081,302.192627 245.429062,293.570770 
	C237.615952,295.339996 230.421875,297.482056 223.071945,298.511261 
	C212.473083,299.995392 202.634674,298.116486 196.315567,288.253510 
	C189.795837,278.077454 190.835495,257.349701 198.273468,247.816193 
	C206.137375,237.736710 217.110703,236.670685 228.576157,238.476715 
	C235.300705,239.535950 241.851425,241.698608 248.614868,243.398727 
	C248.047852,231.685760 247.603195,220.216553 246.792145,208.773315 
	C246.695847,207.414688 244.818375,205.455109 243.392426,205.030533 
	C229.339783,200.846222 214.904587,200.033981 200.382217,201.181870 
	C177.762817,202.969818 162.258148,214.718170 153.934677,235.707397 
	C146.875763,253.507812 145.839157,271.971527 149.417542,290.653503 
	C152.407578,306.263855 159.450195,319.473328 174.049423,328.549866 
M52.812687,181.838837 
	C68.774963,181.838837 84.737244,181.838837 100.781021,181.838837 
	C101.274048,180.276886 101.598473,178.988419 102.080421,177.761856 
	C108.019958,162.645493 112.868347,146.974228 120.171196,132.545975 
	C135.349304,102.558540 158.525620,80.505829 190.311905,68.403084 
	C216.755936,58.334412 244.157898,57.085590 271.947754,60.519104 
	C278.242706,61.296860 284.502350,62.360394 290.536621,63.256504 
	C289.568634,50.990574 283.251404,45.519184 271.653961,42.546398 
	C223.524567,30.209349 178.644043,35.737404 137.332077,64.204781 
	C107.533577,84.738411 85.396523,112.169258 67.714607,143.331970 
	C61.420818,154.424194 56.303352,166.187943 50.784267,177.709991 
	C50.154381,179.024994 47.754555,181.506790 52.812687,181.838837 
M314.840729,241.381088 
	C315.577423,229.001663 316.314117,216.622238 317.050110,204.254395 
	C301.552460,204.254395 286.634735,204.254395 272.086853,204.254395 
	C270.258148,247.075714 268.441528,289.614899 266.613464,332.421265 
	C281.545105,332.421265 297.102386,332.421265 312.476654,332.421265 
	C313.264313,302.239380 314.045929,272.288727 314.840729,241.381088 
M317.015747,166.703644 
	C317.148743,163.749298 317.281769,160.794937 317.427704,157.553497 
	C302.560516,157.553497 288.010132,157.553497 272.966797,157.553497 
	C272.966797,167.672485 272.966797,177.565338 272.966797,187.694946 
	C287.277985,187.694946 301.538239,187.694946 316.128784,187.694946 
	C316.426788,180.918503 316.718414,174.287567 317.015747,166.703644 
M324.842163,72.324455 
	C324.452087,64.426315 321.763641,61.499763 312.099854,58.453686 
	C313.481201,68.558929 314.610565,69.847290 324.842163,72.324455 
M229.133865,451.286377 
	C228.885498,449.938110 228.637146,448.589844 228.362656,447.099792 
	C225.047775,447.672180 222.358459,448.136536 219.343704,448.657104 
	C219.910217,452.267334 220.404572,455.417633 220.930618,458.769928 
	C224.291656,458.218414 227.013046,457.771881 230.095718,457.266052 
	C229.779022,455.317749 229.518341,453.713989 229.133865,451.286377 
M173.285049,449.093933 
	C170.517593,448.367523 167.750122,447.641144 164.651840,446.827942 
	C163.996796,450.567871 163.464111,453.609253 162.857803,457.070953 
	C165.952286,457.667389 168.767807,458.210083 171.956848,458.824768 
	C172.554749,455.594208 173.090973,452.696960 173.285049,449.093933 
M120.705566,429.785919 
	C118.321587,428.159729 115.937614,426.533539 113.234673,424.689758 
	C111.388962,427.866730 109.840477,430.532104 108.120079,433.493378 
	C110.870117,435.227722 113.317657,436.771301 115.998245,438.461853 
	C117.784508,435.525970 119.316002,433.008850 120.705566,429.785919 
M84.045052,414.176971 
	C86.647873,412.186005 89.250694,410.195038 90.729050,409.064209 
	C88.484436,405.870575 86.807320,403.484375 85.012878,400.931244 
	C82.459534,403.822021 80.444992,406.102814 77.889648,408.995850 
	C79.978790,410.759857 81.743683,412.250092 84.045052,414.176971 
M335.655090,393.255676 
	C333.953674,394.254974 332.252289,395.254303 330.408325,396.337341 
	C333.961456,400.108765 336.053284,402.329102 338.284760,404.697632 
	C340.750366,402.397858 342.789246,400.496094 345.036255,398.400177 
	C343.161011,396.227814 341.597565,394.063812 339.635956,392.357574 
	C339.041382,391.840485 337.345551,392.589539 335.655090,393.255676 
M243.796524,454.273193 
	C245.151627,453.886353 246.506729,453.499481 248.040955,453.061493 
	C247.192551,449.627869 246.459366,446.660492 245.658981,443.421234 
	C242.552322,444.167175 239.883301,444.808014 236.877563,445.529724 
	C237.302933,447.755859 237.778503,449.643555 238.004318,451.560730 
	C238.389435,454.830322 240.002075,455.805328 243.796524,454.273193 
M74.932869,398.215088 
	C76.239914,397.014984 77.546967,395.814911 78.933037,394.542267 
	C76.833679,391.993500 74.971046,389.732117 72.892868,387.209045 
	C70.186760,389.658051 67.905518,391.722565 65.361458,394.024933 
	C67.559021,396.610809 69.450867,398.836914 71.451096,401.190552 
	C72.647514,400.193817 73.530937,399.457794 74.932869,398.215088 
M310.971039,414.660339 
	C308.199005,415.963715 305.426971,417.267090 302.354797,418.711548 
	C304.518951,422.145081 306.149597,424.732208 308.013123,427.688782 
	C310.819794,425.779541 313.179413,424.174377 315.755615,422.421936 
	C314.105957,419.728027 312.736755,417.492126 310.971039,414.660339 
M263.460449,440.251862 
	C259.865631,436.390869 257.322052,440.881317 253.746826,440.990875 
	C254.932693,444.537476 255.935654,447.537018 256.981750,450.665680 
	C259.447052,449.913422 261.331024,449.373718 263.188538,448.754669 
	C263.947327,448.501801 264.648834,448.077026 265.592072,447.627716 
	C264.939880,445.296295 264.330811,443.118958 263.460449,440.251862 
M358.064209,366.814148 
	C356.243073,370.515137 357.470367,372.122284 364.628052,375.133270 
	C366.237671,372.831818 367.885162,370.476257 369.662354,367.935242 
	C366.718506,365.728821 364.261047,363.886963 361.691040,361.960724 
	C360.468140,363.594147 359.485229,364.907043 358.064209,366.814148 
M103.481163,422.833496 
	C104.170990,421.758636 104.860809,420.683777 105.701553,419.373718 
	C103.217949,417.410370 100.949440,415.617065 98.434738,413.629120 
	C96.311943,416.488495 94.477577,418.959351 92.453644,421.685547 
	C95.010895,423.746460 97.267746,425.565247 99.708344,427.532135 
	C100.985023,425.975647 102.017258,424.717163 103.481163,422.833496 
M152.779709,443.862793 
	C150.800812,443.190857 148.821915,442.518921 146.532852,441.741669 
	C145.463577,445.302155 144.545105,448.360504 143.544388,451.692688 
	C146.892273,452.665985 149.630310,453.462006 152.466125,454.286438 
	C153.237076,451.829742 154.071304,449.989838 154.325958,448.072937 
	C154.496353,446.790070 153.843414,445.397797 152.779709,443.862793 
M273.345184,442.254913 
	C277.418823,446.591888 279.541809,441.076385 283.075012,440.964966 
	C281.672394,437.508026 280.525391,434.681000 279.221039,431.466187 
	C276.182678,432.780609 273.548492,433.920166 270.683075,435.159729 
	C271.591888,437.561920 272.338867,439.536346 273.345184,442.254913 
M134.368729,445.951141 
	C135.437347,443.445862 136.505966,440.940552 137.696136,438.150299 
	C134.649429,436.786713 132.149307,435.667786 129.298752,434.391998 
	C127.884026,437.582642 126.639755,440.388824 125.046829,443.981323 
	C128.293350,444.941376 131.141479,445.783630 134.368729,445.951141 
M352.957916,379.411163 
	C346.797363,375.932343 347.921417,383.284698 343.898834,384.163727 
	C347.111450,387.008728 349.393188,389.029358 351.906219,391.254852 
	C354.098511,388.730072 355.988861,386.553070 357.840759,384.420319 
	C356.194763,382.737671 354.820618,381.332916 352.957916,379.411163 
M321.013794,413.657562 
	C321.856018,414.616028 322.698212,415.574493 323.786438,416.812958 
	C326.254761,414.787537 328.492096,412.951630 330.936218,410.946075 
	C328.664856,408.050476 326.758270,405.619934 324.777374,403.094604 
	C322.200348,405.106079 320.008514,406.816925 317.606659,408.691681 
	C318.746826,410.351776 319.671234,411.697723 321.013794,413.657562 
M63.809612,383.225525 
	C64.964394,382.321594 66.119171,381.417694 67.529106,380.314087 
	C65.677490,377.676361 63.937496,375.197662 62.119587,372.607971 
	C59.221424,374.790527 56.862110,376.567261 54.208862,378.565369 
	C55.985271,381.181763 57.626854,383.599609 59.450943,386.286285 
	C60.871193,385.312561 62.056976,384.499603 63.809612,383.225525 
M288.500732,431.051636 
	C289.491791,432.899689 290.482819,434.747742 291.588715,436.809937 
	C294.455292,435.275177 296.905029,433.963562 299.777405,432.425690 
	C298.097992,429.254517 296.600311,426.426514 295.025970,423.453796 
	C292.566254,424.790802 290.492218,425.599487 288.866821,426.948639 
	C288.153381,427.540802 288.354645,429.234985 288.500732,431.051636 
M183.919739,460.102417 
	C186.512177,460.102417 189.104630,460.102417 191.943085,460.102417 
	C191.943085,456.819427 191.943085,453.735931 191.943085,450.314148 
	C188.931183,450.314148 186.064590,450.314148 183.164459,450.314148 
	C183.164459,453.676392 183.164459,456.768677 183.919739,460.102417 
M210.925507,450.711853 
	C207.999786,450.401733 205.074066,450.091614 202.232788,449.790466 
	C202.232788,453.787018 202.232788,456.952484 202.232788,460.360321 
	C205.496063,460.177307 208.236313,460.023621 211.003143,459.868439 
	C211.003143,456.854065 211.003143,454.261230 210.925507,450.711853 
M339.127991,77.288368 
	C342.937195,78.671104 346.746429,80.053841 350.555634,81.436577 
	C350.788574,80.958282 351.021515,80.479988 351.254456,80.001701 
	C345.039520,76.222412 338.824585,72.443123 331.748749,68.140312 
	C332.852386,73.108688 333.877472,76.519981 339.127991,77.288368 
z"/>
<path fill="#020202" opacity="1.000000" stroke="none" 
	d="
M15.120413,340.487427 
	C18.246052,340.499542 20.911970,340.503937 23.577600,340.533997 
	C23.891996,340.537537 24.204802,340.682129 24.790710,340.830170 
	C31.053854,358.249695 39.014202,375.017670 49.827419,390.301361 
	C81.636559,435.261292 124.735397,461.901184 179.546127,468.002747 
	C235.063965,474.182953 284.288300,457.177155 328.365112,424.060181 
	C356.704681,402.767303 379.005554,376.119110 395.862579,344.953827 
	C397.633820,341.679108 399.555939,340.232910 403.525085,340.365784 
	C414.173615,340.722229 424.841980,340.487396 436.004578,340.487396 
	C435.625214,341.751801 435.438141,342.810699 435.004974,343.756989 
	C407.929443,402.907501 366.583832,448.734650 308.291779,478.414001 
	C272.148804,496.816193 233.657791,505.802460 193.084717,502.724396 
	C130.524017,497.978302 80.745300,469.626038 43.884144,418.869812 
	C27.393389,396.162750 16.403984,370.817078 9.285246,343.742035 
	C9.079377,342.959015 8.987633,342.146057 8.686711,340.487396 
	C10.890716,340.487396 12.775661,340.487396 15.120413,340.487427 
z"/>
<path fill="#040404" opacity="1.000000" stroke="none" 
	d="
M58.999306,122.062561 
	C39.674339,150.004807 26.293478,180.193146 18.750103,213.253815 
	C17.246237,213.344391 15.799987,213.462357 14.351430,213.509598 
	C13.033538,213.552582 11.713140,213.518723 10.190338,213.518723 
	C10.190338,212.311600 9.980644,211.322464 10.220171,210.457764 
	C31.163868,134.849075 73.611290,75.284615 141.958847,35.504322 
	C176.825302,15.211016 214.675674,3.935530 255.157211,4.653652 
	C330.901398,5.997315 388.528503,39.935829 427.855865,104.457924 
	C447.513184,136.708496 457.012177,172.359726 459.866882,209.871277 
	C459.941925,210.857468 459.876343,211.854370 459.876343,213.182434 
	C449.042053,213.182434 438.317902,213.182434 428.238434,213.182434 
	C425.806641,198.640930 424.318573,184.037521 420.835114,169.926697 
	C407.658691,116.551651 379.149414,73.714622 330.855804,46.018017 
	C280.589386,17.190012 227.568512,14.672230 173.429016,33.571796 
	C125.698448,50.234058 88.316994,80.758728 58.999306,122.062561 
z"/>
<path fill="#303393" opacity="1.000000" stroke="none" 
	d="
M73.985054,306.985199 
	C71.914276,315.509308 69.914429,324.052124 67.673500,332.531281 
	C67.423164,333.478455 65.883278,334.569733 64.807213,334.738495 
	C54.387505,336.372772 44.020107,336.612610 33.558746,334.419983 
	C9.796165,329.439545 -0.148298,298.088287 12.923309,277.983032 
	C19.875444,267.290070 29.891872,261.294220 41.667084,257.820099 
	C52.178646,254.718796 62.827965,252.085022 73.410728,249.223648 
	C74.690598,248.877594 75.971329,248.485123 77.188766,247.966522 
	C82.410004,245.742401 84.623085,242.221130 84.086685,237.120941 
	C83.625854,232.739273 80.288780,229.575333 74.775375,228.933929 
	C63.277264,227.596298 52.270542,230.203232 41.454159,233.708954 
	C35.471977,235.647842 29.601782,237.932251 23.399117,240.162292 
	C24.660212,230.253479 25.816858,220.573761 27.224730,210.930710 
	C27.382097,209.852859 28.819218,208.366364 29.909092,208.107971 
	C52.164852,202.831497 74.551155,198.650833 97.579323,201.947830 
	C101.018768,202.440292 104.453819,203.273758 107.756371,204.358902 
	C122.861778,209.322235 130.267441,219.851379 129.845856,236.583694 
	C129.523071,249.395279 128.397354,262.184448 127.834167,274.992645 
	C127.066139,292.459656 126.498863,309.935516 125.827858,327.406891 
	C125.765320,329.035278 125.576111,330.658783 125.424805,332.545288 
	C110.919334,332.545288 96.686684,332.545288 81.948692,332.545288 
	C82.995628,313.749817 84.036690,295.059753 85.095215,276.056152 
	C76.013863,279.488220 67.169380,282.335419 58.816120,286.234894 
	C55.540752,287.763947 52.402679,291.216064 50.895889,294.556427 
	C47.998455,300.979645 51.950474,307.451996 58.929375,307.987122 
	C63.625385,308.347290 68.436081,307.211761 73.599007,306.873840 
	C74.002541,307.002350 73.985054,306.985199 73.985054,306.985199 
z"/>
<path fill="#303393" opacity="1.000000" stroke="none" 
	d="
M355.079163,181.511658 
	C364.094666,178.744568 373.029816,176.400620 381.968964,174.071930 
	C386.451691,172.904190 390.941620,171.764236 395.658997,170.552460 
	C395.658997,182.334427 395.658997,193.719269 395.658997,205.689270 
	C403.681030,205.689270 411.913055,205.689270 420.017822,205.689270 
	C420.017822,217.507751 420.017822,228.729248 420.017822,240.469009 
	C411.126617,240.469009 402.862915,240.469009 393.743195,240.469009 
	C393.511200,256.743378 392.891724,272.520416 393.233154,288.276611 
	C393.396423,295.810730 398.549927,299.430847 406.232086,298.708801 
	C410.668549,298.291840 415.031799,297.095886 419.882507,296.163116 
	C418.459869,305.285553 417.130157,314.423920 415.587616,323.526245 
	C414.139130,332.073456 414.051270,332.112823 405.527069,333.798676 
	C394.680023,335.943878 383.802399,336.760498 372.759766,335.076294 
	C357.809204,332.796021 348.439331,323.600464 348.109161,308.368591 
	C347.795807,293.911957 348.968262,279.420258 349.575562,264.947693 
	C349.908752,257.008057 350.424194,249.076080 350.887421,240.591309 
	C345.055756,240.591309 339.636505,240.591309 334.554871,240.591309 
	C334.554871,228.807510 334.554871,217.572495 334.554871,205.955093 
	C341.104401,205.955093 346.879059,205.955093 353.426147,205.955093 
	C353.964996,197.735672 354.482727,189.838409 355.079163,181.511658 
z"/>
<path fill="#303293" opacity="1.000000" stroke="none" 
	d="
M173.761856,328.321411 
	C159.450195,319.473328 152.407578,306.263855 149.417542,290.653503 
	C145.839157,271.971527 146.875763,253.507812 153.934677,235.707397 
	C162.258148,214.718170 177.762817,202.969818 200.382217,201.181870 
	C214.904587,200.033981 229.339783,200.846222 243.392426,205.030533 
	C244.818375,205.455109 246.695847,207.414688 246.792145,208.773315 
	C247.603195,220.216553 248.047852,231.685760 248.614868,243.398727 
	C241.851425,241.698608 235.300705,239.535950 228.576157,238.476715 
	C217.110703,236.670685 206.137375,237.736710 198.273468,247.816193 
	C190.835495,257.349701 189.795837,278.077454 196.315567,288.253510 
	C202.634674,298.116486 212.473083,299.995392 223.071945,298.511261 
	C230.421875,297.482056 237.615952,295.339996 245.429062,293.570770 
	C244.199081,302.192627 243.056686,311.043762 241.650635,319.852814 
	C239.700836,332.068512 239.603424,331.980072 227.027527,334.098663 
	C213.958694,336.300354 200.867874,337.306244 187.888626,333.986420 
	C183.123779,332.767639 178.653870,330.395752 173.761856,328.321411 
z"/>
<path fill="#ED1E26" opacity="1.000000" stroke="none" 
	d="
M52.352680,181.836868 
	C47.754555,181.506790 50.154381,179.024994 50.784267,177.709991 
	C56.303352,166.187943 61.420818,154.424194 67.714607,143.331970 
	C85.396523,112.169258 107.533577,84.738411 137.332077,64.204781 
	C178.644043,35.737404 223.524567,30.209349 271.653961,42.546398 
	C283.251404,45.519184 289.568634,50.990574 290.536621,63.256504 
	C284.502350,62.360394 278.242706,61.296860 271.947754,60.519104 
	C244.157898,57.085590 216.755936,58.334412 190.311905,68.403084 
	C158.525620,80.505829 135.349304,102.558540 120.171196,132.545975 
	C112.868347,146.974228 108.019958,162.645493 102.080421,177.761856 
	C101.598473,178.988419 101.274048,180.276886 100.781021,181.838837 
	C84.737244,181.838837 68.774963,181.838837 52.352680,181.836868 
z"/>
<path fill="#303393" opacity="1.000000" stroke="none" 
	d="
M314.834137,241.859589 
	C314.045929,272.288727 313.264313,302.239380 312.476654,332.421265 
	C297.102386,332.421265 281.545105,332.421265 266.613464,332.421265 
	C268.441528,289.614899 270.258148,247.075714 272.086853,204.254395 
	C286.634735,204.254395 301.552460,204.254395 317.050110,204.254395 
	C316.314117,216.622238 315.577423,229.001663 314.834137,241.859589 
z"/>
<path fill="#333695" opacity="1.000000" stroke="none" 
	d="
M317.012878,167.180145 
	C316.718414,174.287567 316.426788,180.918503 316.128784,187.694946 
	C301.538239,187.694946 287.277985,187.694946 272.966797,187.694946 
	C272.966797,177.565338 272.966797,167.672485 272.966797,157.553497 
	C288.010132,157.553497 302.560516,157.553497 317.427704,157.553497 
	C317.281769,160.794937 317.148743,163.749298 317.012878,167.180145 
z"/>
<path fill="#EC1E26" opacity="1.000000" stroke="none" 
	d="
M203.702545,364.766602 
	C197.278961,361.965851 191.808258,358.153717 189.667709,351.024475 
	C189.120605,349.202301 188.986755,347.256042 188.612534,345.072021 
	C202.337708,345.072021 215.530670,345.072021 228.969589,345.072021 
	C228.454407,353.481873 224.428116,359.261108 216.717758,363.397919 
	C211.935440,364.040436 207.818985,364.403534 203.702545,364.766602 
z"/>
<path fill="#0A090A" opacity="1.000000" stroke="none" 
	d="
M203.790405,365.152588 
	C207.818985,364.403534 211.935440,364.040436 216.471771,363.605652 
	C219.391495,378.334045 221.891296,393.134186 224.391098,407.934326 
	C224.082825,408.009918 223.774536,408.085480 223.466248,408.161072 
	C216.936920,393.953552 210.407608,379.746063 203.790405,365.152588 
z"/>
<path fill="#EE2931" opacity="1.000000" stroke="none" 
	d="
M295.008270,51.004757 
	C304.867310,51.757305 304.181580,60.455029 307.520111,66.990509 
	C302.517853,66.794258 298.801605,66.341988 297.769958,60.959335 
	C297.157593,57.764568 295.710724,54.729763 294.838470,51.287857 
	C295.037842,50.952690 295.008270,51.004757 295.008270,51.004757 
z"/>
<path fill="#EE272E" opacity="1.000000" stroke="none" 
	d="
M324.521057,72.290848 
	C314.610565,69.847290 313.481201,68.558929 312.099854,58.453686 
	C321.763641,61.499763 324.452087,64.426315 324.521057,72.290848 
z"/>
<path fill="#0F0F0F" opacity="1.000000" stroke="none" 
	d="
M229.195755,451.698303 
	C229.518341,453.713989 229.779022,455.317749 230.095718,457.266052 
	C227.013046,457.771881 224.291656,458.218414 220.930618,458.769928 
	C220.404572,455.417633 219.910217,452.267334 219.343704,448.657104 
	C222.358459,448.136536 225.047775,447.672180 228.362656,447.099792 
	C228.637146,448.589844 228.885498,449.938110 229.195755,451.698303 
z"/>
<path fill="#0F0F0F" opacity="1.000000" stroke="none" 
	d="
M173.456116,449.446808 
	C173.090973,452.696960 172.554749,455.594208 171.956848,458.824768 
	C168.767807,458.210083 165.952286,457.667389 162.857803,457.070953 
	C163.464111,453.609253 163.996796,450.567871 164.651840,446.827942 
	C167.750122,447.641144 170.517593,448.367523 173.456116,449.446808 
z"/>
<path fill="#0E0E0E" opacity="1.000000" stroke="none" 
	d="
M120.776527,430.138794 
	C119.316002,433.008850 117.784508,435.525970 115.998245,438.461853 
	C113.317657,436.771301 110.870117,435.227722 108.120079,433.493378 
	C109.840477,430.532104 111.388962,427.866730 113.234673,424.689758 
	C115.937614,426.533539 118.321587,428.159729 120.776527,430.138794 
z"/>
<path fill="#101010" opacity="1.000000" stroke="none" 
	d="
M83.776810,413.958649 
	C81.743683,412.250092 79.978790,410.759857 77.889648,408.995850 
	C80.444992,406.102814 82.459534,403.822021 85.012878,400.931244 
	C86.807320,403.484375 88.484436,405.870575 90.729050,409.064209 
	C89.250694,410.195038 86.647873,412.186005 83.776810,413.958649 
z"/>
<path fill="#EE2E35" opacity="1.000000" stroke="none" 
	d="
M335.904602,393.007141 
	C337.345551,392.589539 339.041382,391.840485 339.635956,392.357574 
	C341.597565,394.063812 343.161011,396.227814 345.036255,398.400177 
	C342.789246,400.496094 340.750366,402.397858 338.284760,404.697632 
	C336.053284,402.329102 333.961456,400.108765 330.408325,396.337341 
	C332.252289,395.254303 333.953674,394.254974 335.904602,393.007141 
z"/>
<path fill="#EE252D" opacity="1.000000" stroke="none" 
	d="
M243.406067,454.407593 
	C240.002075,455.805328 238.389435,454.830322 238.004318,451.560730 
	C237.778503,449.643555 237.302933,447.755859 236.877563,445.529724 
	C239.883301,444.808014 242.552322,444.167175 245.658981,443.421234 
	C246.459366,446.660492 247.192551,449.627869 248.040955,453.061493 
	C246.506729,453.499481 245.151627,453.886353 243.406067,454.407593 
z"/>
<path fill="#101010" opacity="1.000000" stroke="none" 
	d="
M74.673615,398.468445 
	C73.530937,399.457794 72.647514,400.193817 71.451096,401.190552 
	C69.450867,398.836914 67.559021,396.610809 65.361458,394.024933 
	C67.905518,391.722565 70.186760,389.658051 72.892868,387.209045 
	C74.971046,389.732117 76.833679,391.993500 78.933037,394.542267 
	C77.546967,395.814911 76.239914,397.014984 74.673615,398.468445 
z"/>
<path fill="#EE2830" opacity="1.000000" stroke="none" 
	d="
M311.169312,414.958252 
	C312.736755,417.492126 314.105957,419.728027 315.755615,422.421936 
	C313.179413,424.174377 310.819794,425.779541 308.013123,427.688782 
	C306.149597,424.732208 304.518951,422.145081 302.354797,418.711548 
	C305.426971,417.267090 308.199005,415.963715 311.169312,414.958252 
z"/>
<path fill="#EE2C33" opacity="1.000000" stroke="none" 
	d="
M263.591095,440.596741 
	C264.330811,443.118958 264.939880,445.296295 265.592072,447.627716 
	C264.648834,448.077026 263.947327,448.501801 263.188538,448.754669 
	C261.331024,449.373718 259.447052,449.913422 256.981750,450.665680 
	C255.935654,447.537018 254.932693,444.537476 253.746826,440.990875 
	C257.322052,440.881317 259.865631,436.390869 263.591095,440.596741 
z"/>
<path fill="#EE2B33" opacity="1.000000" stroke="none" 
	d="
M358.283264,366.517029 
	C359.485229,364.907043 360.468140,363.594147 361.691040,361.960724 
	C364.261047,363.886963 366.718506,365.728821 369.662354,367.935242 
	C367.885162,370.476257 366.237671,372.831818 364.628052,375.133270 
	C357.470367,372.122284 356.243073,370.515137 358.283264,366.517029 
z"/>
<path fill="#111111" opacity="1.000000" stroke="none" 
	d="
M103.265327,423.146088 
	C102.017258,424.717163 100.985023,425.975647 99.708344,427.532135 
	C97.267746,425.565247 95.010895,423.746460 92.453644,421.685547 
	C94.477577,418.959351 96.311943,416.488495 98.434738,413.629120 
	C100.949440,415.617065 103.217949,417.410370 105.701553,419.373718 
	C104.860809,420.683777 104.170990,421.758636 103.265327,423.146088 
z"/>
<path fill="#0E0E0E" opacity="1.000000" stroke="none" 
	d="
M153.169312,443.958649 
	C153.843414,445.397797 154.496353,446.790070 154.325958,448.072937 
	C154.071304,449.989838 153.237076,451.829742 152.466125,454.286438 
	C149.630310,453.462006 146.892273,452.665985 143.544388,451.692688 
	C144.545105,448.360504 145.463577,445.302155 146.532852,441.741669 
	C148.821915,442.518921 150.800812,443.190857 153.169312,443.958649 
z"/>
<path fill="#EE2A32" opacity="1.000000" stroke="none" 
	d="
M273.215515,441.882843 
	C272.338867,439.536346 271.591888,437.561920 270.683075,435.159729 
	C273.548492,433.920166 276.182678,432.780609 279.221039,431.466187 
	C280.525391,434.681000 281.672394,437.508026 283.075012,440.964966 
	C279.541809,441.076385 277.418823,446.591888 273.215515,441.882843 
z"/>
<path fill="#0A0A0A" opacity="1.000000" stroke="none" 
	d="
M134.179169,446.288513 
	C131.141479,445.783630 128.293350,444.941376 125.046829,443.981323 
	C126.639755,440.388824 127.884026,437.582642 129.298752,434.391998 
	C132.149307,435.667786 134.649429,436.786713 137.696136,438.150299 
	C136.505966,440.940552 135.437347,443.445862 134.179169,446.288513 
z"/>
<path fill="#EE262E" opacity="1.000000" stroke="none" 
	d="
M353.202179,379.669678 
	C354.820618,381.332916 356.194763,382.737671 357.840759,384.420319 
	C355.988861,386.553070 354.098511,388.730072 351.906219,391.254852 
	C349.393188,389.029358 347.111450,387.008728 343.898834,384.163727 
	C347.921417,383.284698 346.797363,375.932343 353.202179,379.669678 
z"/>
<path fill="#EE282F" opacity="1.000000" stroke="none" 
	d="
M320.804749,413.350616 
	C319.671234,411.697723 318.746826,410.351776 317.606659,408.691681 
	C320.008514,406.816925 322.200348,405.106079 324.777374,403.094604 
	C326.758270,405.619934 328.664856,408.050476 330.936218,410.946075 
	C328.492096,412.951630 326.254761,414.787537 323.786438,416.812958 
	C322.698212,415.574493 321.856018,414.616028 320.804749,413.350616 
z"/>
<path fill="#0A0A0A" opacity="1.000000" stroke="none" 
	d="
M63.526184,383.456055 
	C62.056976,384.499603 60.871193,385.312561 59.450943,386.286285 
	C57.626854,383.599609 55.985271,381.181763 54.208862,378.565369 
	C56.862110,376.567261 59.221424,374.790527 62.119587,372.607971 
	C63.937496,375.197662 65.677490,377.676361 67.529106,380.314087 
	C66.119171,381.417694 64.964394,382.321594 63.526184,383.456055 
z"/>
<path fill="#EE272E" opacity="1.000000" stroke="none" 
	d="
M288.320679,430.740204 
	C288.354645,429.234985 288.153381,427.540802 288.866821,426.948639 
	C290.492218,425.599487 292.566254,424.790802 295.025970,423.453796 
	C296.600311,426.426514 298.097992,429.254517 299.777405,432.425690 
	C296.905029,433.963562 294.455292,435.275177 291.588715,436.809937 
	C290.482819,434.747742 289.491791,432.899689 288.320679,430.740204 
z"/>
<path fill="#060606" opacity="1.000000" stroke="none" 
	d="
M183.542099,459.981689 
	C183.164459,456.768677 183.164459,453.676392 183.164459,450.314148 
	C186.064590,450.314148 188.931183,450.314148 191.943085,450.314148 
	C191.943085,453.735931 191.943085,456.819427 191.943085,460.102417 
	C189.104630,460.102417 186.512177,460.102417 183.542099,459.981689 
z"/>
<path fill="#020202" opacity="1.000000" stroke="none" 
	d="
M210.964325,451.190125 
	C211.003143,454.261230 211.003143,456.854065 211.003143,459.868439 
	C208.236313,460.023621 205.496063,460.177307 202.232788,460.360321 
	C202.232788,456.952484 202.232788,453.787018 202.232788,449.790466 
	C205.074066,450.091614 207.999786,450.401733 210.964325,451.190125 
z"/>
<path fill="#EE2D35" opacity="1.000000" stroke="none" 
	d="
M338.752808,77.190048 
	C333.877472,76.519981 332.852386,73.108688 331.748749,68.140312 
	C338.824585,72.443123 345.039520,76.222412 351.254456,80.001701 
	C351.021515,80.479988 350.788574,80.958282 350.555634,81.436577 
	C346.746429,80.053841 342.937195,78.671104 338.752808,77.190048 
z"/>
<path fill="#303393" opacity="1.000000" stroke="none" 
	d="
M74.012222,307.010956 
	C74.103210,306.806519 74.184509,306.593445 74.265793,306.380402 
	C74.315269,306.592651 74.364746,306.804901 74.199631,307.001160 
	C73.985054,306.985199 74.002541,307.002350 74.012222,307.010956 
z"/>
<path fill="#EE2931" opacity="1.000000" stroke="none" 
	d="
M295.052673,50.926704 
	C294.940643,50.961872 294.813782,51.023029 294.686890,51.084183 
	C294.725586,50.962906 294.764282,50.841633 294.905640,50.862556 
	C295.008270,51.004757 295.037842,50.952690 295.052673,50.926704 
z"/>
</svg>